<?xml version="1.0" encoding="UTF-8"?>
<svg version="1.1" xmlns="http://www.w3.org/2000/svg" width="192" height="192">
<path d="M0 0 C2.90834885 -0.26660183 5.60138268 -0.34779124 8.5078125 -0.29296875 C9.34843231 -0.28872391 10.18905212 -0.28447906 11.05514526 -0.28010559 C13.74541993 -0.26328532 16.43495099 -0.22562781 19.125 -0.1875 C20.94660378 -0.17245745 22.76821928 -0.1587683 24.58984375 -0.14648438 C29.06018324 -0.11337094 33.52996546 -0.06156637 38 0 C38.24393108 7.4926783 38.27358076 13.88737607 35.625 20.9375 C34.96371094 22.74541016 34.96371094 22.74541016 34.2890625 24.58984375 C33.65097656 26.27787109 33.65097656 26.27787109 33 28 C32.65710938 29.11503906 32.31421875 30.23007812 31.9609375 31.37890625 C31 34 31 34 29 35 C26.74879258 35.08573394 24.49500697 35.10712188 22.2421875 35.09765625 C21.24761032 35.09553383 21.24761032 35.09553383 20.23294067 35.09336853 C18.11358137 35.08776754 15.99432741 35.075215 13.875 35.0625 C12.43880361 35.05748512 11.00260556 35.05292219 9.56640625 35.04882812 C6.04423655 35.03779782 2.52212855 35.02053259 -1 35 C-1.18320801 35.75458496 -1.36641602 36.50916992 -1.55517578 37.28662109 C-3.15492964 43.79283128 -4.84201776 50.24033685 -6.875 56.625 C-7.22111328 57.80642578 -7.22111328 57.80642578 -7.57421875 59.01171875 C-7.93580078 60.13900391 -7.93580078 60.13900391 -8.3046875 61.2890625 C-8.6138208 62.28993896 -8.6138208 62.28993896 -8.92919922 63.31103516 C-10.50535646 65.79709438 -12.22767363 66.10444078 -15 67 C-17.87910461 67.24050903 -17.87910461 67.24050903 -21.07543945 67.22705078 C-22.87674065 67.22682419 -22.87674065 67.22682419 -24.71443176 67.22659302 C-26.64436226 67.21110916 -26.64436226 67.21110916 -28.61328125 67.1953125 C-29.95134774 67.19157912 -31.28941697 67.18873368 -32.62748718 67.18673706 C-36.13741699 67.17912616 -39.64717945 67.15949982 -43.15704346 67.1373291 C-46.74334449 67.11681564 -50.32967274 67.10772362 -53.91601562 67.09765625 C-60.94407885 67.07625129 -67.97203138 67.04214631 -75 67 C-75.15013046 67.9371283 -75.30026093 68.87425659 -75.4549408 69.83978271 C-75.95457931 72.73665381 -76.6516645 75.35228718 -77.56640625 78.140625 C-77.88295166 79.11539795 -78.19949707 80.0901709 -78.52563477 81.09448242 C-79.03888306 82.65646362 -79.03888306 82.65646362 -79.5625 84.25 C-82.4693883 93.20769317 -85.3105793 102.18096858 -88.0625 111.1875 C-90.86607712 120.3520882 -93.72396565 129.49702223 -96.65454102 138.62182617 C-98.50615949 144.39750131 -100.25638145 150.18793816 -102 156 C-84.51 156 -67.02 156 -49 156 C-48.67 153.69 -48.34 151.38 -48 149 C-47.67 148.34 -47.34 147.68 -47 147 C-48.35532837 147.00785522 -48.35532837 147.00785522 -49.73803711 147.01586914 C-53.07951489 147.03287686 -56.42094692 147.04543333 -59.76245117 147.05493164 C-61.21070073 147.05997101 -62.65894517 147.06680253 -64.10717773 147.07543945 C-66.18474588 147.08752247 -68.26224697 147.09323211 -70.33984375 147.09765625 C-71.59144287 147.10289307 -72.84304199 147.10812988 -74.13256836 147.11352539 C-77 147 -77 147 -78 146 C-77.49280912 140.66764187 -76.18193904 135.73638427 -74.625 130.625 C-74.40239502 129.8812915 -74.17979004 129.13758301 -73.95043945 128.37133789 C-72.39688135 123.21366024 -70.75893954 118.09166709 -69 113 C-64.38692094 112.26481309 -59.95572005 111.87048638 -55.28613281 111.85473633 C-53.34942719 111.84516655 -53.34942719 111.84516655 -51.37359619 111.83540344 C-49.98343951 111.83387542 -48.59328233 111.83276111 -47.203125 111.83203125 C-45.76300016 111.82881422 -44.32287564 111.82544982 -42.88275146 111.82194519 C-39.87706747 111.81598181 -36.87141214 111.81410268 -33.86572266 111.81469727 C-30.01325713 111.81479936 -26.16097394 111.80108593 -22.30855179 111.78392506 C-19.3403234 111.77282035 -16.37213955 111.77077749 -13.40389252 111.77130699 C-11.98291133 111.77012693 -10.56192898 111.76570364 -9.14096832 111.75797462 C-7.15943268 111.74819528 -5.1778431 111.7523117 -3.19628906 111.75708008 C-2.06934631 111.75565506 -0.94240356 111.75423004 0.21868896 111.75276184 C3 112 3 112 6 114 C5.73598005 115.31388752 5.46324636 116.62602339 5.1875 117.9375 C4.96126953 119.03384766 4.96126953 119.03384766 4.73046875 120.15234375 C3.91274116 123.3401695 2.8879319 126.41926887 1.83178711 129.53491211 C0.40009002 133.77789582 -0.95355884 138.04576238 -2.3125 142.3125 C-2.76761963 143.74057983 -2.76761963 143.74057983 -3.23193359 145.19750977 C-5.26041864 151.59247554 -7.21653572 158.00580051 -9.125 164.4375 C-15.5667983 186.1335966 -15.5667983 186.1335966 -18 191 C-62.88 191 -107.76 191 -154 191 C-154 182.00770252 -154 182.00770252 -152.42578125 177.6015625 C-152.09054443 176.63710205 -151.75530762 175.6726416 -151.40991211 174.67895508 C-150.86669312 173.16724731 -150.86669312 173.16724731 -150.3125 171.625 C-147.80463721 164.40013669 -145.39205605 157.2075035 -143.4375 149.8125 C-141.69419548 143.2663804 -139.67517601 136.85296585 -137.5 130.4375 C-135.42620513 124.32082468 -133.41109215 118.20717366 -131.625 112 C-129.39019586 104.23989422 -127.02051244 96.52445636 -124.625 88.8125 C-124.23618652 87.56041748 -123.84737305 86.30833496 -123.44677734 85.01831055 C-120.80985692 76.54954928 -118.11607087 68.10024791 -115.39428711 59.65844727 C-113.26015441 52.97661686 -111.34498858 46.24746493 -109.59667969 39.4543457 C-108.21077972 34.21077972 -108.21077972 34.21077972 -106 32 C-102.98850609 31.78201123 -100.06633389 31.68854171 -97.05224609 31.68115234 C-96.12536484 31.67110672 -95.19848358 31.6610611 -94.24351501 31.65071106 C-91.17016234 31.61974213 -88.0968973 31.60280593 -85.0234375 31.5859375 C-82.89636473 31.56723687 -80.76929946 31.54766431 -78.64224243 31.5272522 C-73.03629977 31.4758082 -67.43033303 31.43624826 -61.82427979 31.39910889 C-56.10675031 31.35914597 -50.38932208 31.30801855 -44.671875 31.2578125 C-33.44798766 31.16090803 -22.22404332 31.07654988 -11 31 C-10.03516185 28.12412705 -9.07184008 25.24776087 -8.109375 22.37109375 C-7.83786621 21.56232788 -7.56635742 20.75356201 -7.28662109 19.92028809 C-5.61756728 14.92707772 -4.03755642 9.92496469 -2.640625 4.84765625 C-2 3 -2 3 0 0 Z " fill="#993501" transform="translate(154,0)"/>
<path d="M0 0 C2.90834885 -0.26660183 5.60138268 -0.34779124 8.5078125 -0.29296875 C9.34843231 -0.28872391 10.18905212 -0.28447906 11.05514526 -0.28010559 C13.74541993 -0.26328532 16.43495099 -0.22562781 19.125 -0.1875 C20.94660378 -0.17245745 22.76821928 -0.1587683 24.58984375 -0.14648438 C29.06018324 -0.11337094 33.52996546 -0.06156637 38 0 C38.24393108 7.4926783 38.27358076 13.88737607 35.625 20.9375 C34.96371094 22.74541016 34.96371094 22.74541016 34.2890625 24.58984375 C33.65097656 26.27787109 33.65097656 26.27787109 33 28 C32.65710938 29.11503906 32.31421875 30.23007812 31.9609375 31.37890625 C31 34 31 34 29 35 C26.74879258 35.08573394 24.49500697 35.10712188 22.2421875 35.09765625 C21.24761032 35.09553383 21.24761032 35.09553383 20.23294067 35.09336853 C18.11358137 35.08776754 15.99432741 35.075215 13.875 35.0625 C12.43880361 35.05748512 11.00260556 35.05292219 9.56640625 35.04882812 C6.04423655 35.03779782 2.52212855 35.02053259 -1 35 C-1.18320801 35.75458496 -1.36641602 36.50916992 -1.55517578 37.28662109 C-3.15492964 43.79283128 -4.84201776 50.24033685 -6.875 56.625 C-7.22111328 57.80642578 -7.22111328 57.80642578 -7.57421875 59.01171875 C-7.93580078 60.13900391 -7.93580078 60.13900391 -8.3046875 61.2890625 C-8.6138208 62.28993896 -8.6138208 62.28993896 -8.92919922 63.31103516 C-10.50535646 65.79709438 -12.22767363 66.10444078 -15 67 C-17.87910461 67.24050903 -17.87910461 67.24050903 -21.07543945 67.22705078 C-22.87674065 67.22682419 -22.87674065 67.22682419 -24.71443176 67.22659302 C-26.64436226 67.21110916 -26.64436226 67.21110916 -28.61328125 67.1953125 C-29.95134774 67.19157912 -31.28941697 67.18873368 -32.62748718 67.18673706 C-36.13741699 67.17912616 -39.64717945 67.15949982 -43.15704346 67.1373291 C-46.74334449 67.11681564 -50.32967274 67.10772362 -53.91601562 67.09765625 C-60.94407885 67.07625129 -67.97203138 67.04214631 -75 67 C-75.15013046 67.9371283 -75.30026093 68.87425659 -75.4549408 69.83978271 C-75.95457931 72.73665381 -76.6516645 75.35228718 -77.56640625 78.140625 C-77.88295166 79.11539795 -78.19949707 80.0901709 -78.52563477 81.09448242 C-79.03888306 82.65646362 -79.03888306 82.65646362 -79.5625 84.25 C-82.4693883 93.20769317 -85.3105793 102.18096858 -88.0625 111.1875 C-90.86607712 120.3520882 -93.72396565 129.49702223 -96.65454102 138.62182617 C-98.50615949 144.39750131 -100.25638145 150.18793816 -102 156 C-92.43 156 -82.86 156 -73 156 C-73 156.66 -73 157.32 -73 158 C-91.15 158 -109.3 158 -128 158 C-128 157.67 -128 157.34 -128 157 C-120.41 156.67 -112.82 156.34 -105 156 C-102.97947421 150.61193123 -101.63366302 146.97659518 -100.875 141.5625 C-100.09489051 136.09489051 -100.09489051 136.09489051 -99 135 C-98.835 133.845 -98.67 132.69 -98.5 131.5 C-98 128 -98 128 -97 127 C-101.45827926 126.9421696 -105.9164628 126.90646145 -110.375 126.875 C-111.64601562 126.85824219 -112.91703125 126.84148437 -114.2265625 126.82421875 C-115.43828125 126.81777344 -116.65 126.81132813 -117.8984375 126.8046875 C-119.01911621 126.79421387 -120.13979492 126.78374023 -121.29443359 126.77294922 C-124.14977843 126.71944677 -124.14977843 126.71944677 -126 129 C-126.33 128.67 -126.66 128.34 -127 128 C-131.43673195 139.78675251 -131.43673195 139.78675251 -134.54321289 151.96264648 C-135.1237125 154.55178024 -136.11761393 156.94312898 -137.06616211 159.41577148 C-139.15737466 165.20282634 -140.88186656 171.11863035 -142.6875 177 C-143.10720091 178.36074526 -143.52712102 179.72142292 -143.94726562 181.08203125 C-144.96737219 184.38724539 -145.9845088 187.6933645 -147 191 C-149.31 191 -151.62 191 -154 191 C-154.50161564 183.84134973 -152.71943169 178.32317766 -150.3125 171.625 C-147.80463721 164.40013669 -145.39205605 157.2075035 -143.4375 149.8125 C-141.69419548 143.2663804 -139.67517601 136.85296585 -137.5 130.4375 C-135.42620513 124.32082468 -133.41109215 118.20717366 -131.625 112 C-129.39019586 104.23989422 -127.02051244 96.52445636 -124.625 88.8125 C-124.23618652 87.56041748 -123.84737305 86.30833496 -123.44677734 85.01831055 C-120.80985692 76.54954928 -118.11607087 68.10024791 -115.39428711 59.65844727 C-113.26015441 52.97661686 -111.34498858 46.24746493 -109.59667969 39.4543457 C-108.21077972 34.21077972 -108.21077972 34.21077972 -106 32 C-102.98850609 31.78201123 -100.06633389 31.68854171 -97.05224609 31.68115234 C-96.12536484 31.67110672 -95.19848358 31.6610611 -94.24351501 31.65071106 C-91.17016234 31.61974213 -88.0968973 31.60280593 -85.0234375 31.5859375 C-82.89636473 31.56723687 -80.76929946 31.54766431 -78.64224243 31.5272522 C-73.03629977 31.4758082 -67.43033303 31.43624826 -61.82427979 31.39910889 C-56.10675031 31.35914597 -50.38932208 31.30801855 -44.671875 31.2578125 C-33.44798766 31.16090803 -22.22404332 31.07654988 -11 31 C-10.03516185 28.12412705 -9.07184008 25.24776087 -8.109375 22.37109375 C-7.83786621 21.56232788 -7.56635742 20.75356201 -7.28662109 19.92028809 C-5.61756728 14.92707772 -4.03755642 9.92496469 -2.640625 4.84765625 C-2 3 -2 3 0 0 Z " fill="#EFC428" transform="translate(154,0)"/>
<path d="M0 0 C0.67822311 -0.00335861 1.35644623 -0.00671722 2.05522156 -0.01017761 C4.30253926 -0.01969504 6.54978253 -0.02163109 8.79711914 -0.02270508 C10.35649141 -0.02591703 11.91586336 -0.02928105 13.47523499 -0.03279114 C16.74619241 -0.03878433 20.01712341 -0.04063084 23.28808594 -0.04003906 C27.48259558 -0.03993741 31.67693607 -0.05359194 35.8714056 -0.07081127 C39.09270509 -0.08192119 42.31396354 -0.08395859 45.53528023 -0.08342934 C47.0818598 -0.08461089 48.62844038 -0.08904245 50.17500114 -0.0967617 C52.3368406 -0.10654173 54.49831105 -0.10369166 56.66015625 -0.09765625 C57.89100449 -0.09908127 59.12185272 -0.10050629 60.38999939 -0.10197449 C63.39477539 0.14526367 63.39477539 0.14526367 66.39477539 2.14526367 C66.13075544 3.45915119 65.85802175 4.77128707 65.58227539 6.08276367 C65.35604492 7.17911133 65.35604492 7.17911133 65.12524414 8.29760742 C64.31124984 11.47087931 63.29128786 14.53490468 62.23974609 17.63623047 C60.73627752 22.10058948 59.32163405 26.59345509 57.89477539 31.08276367 C57.59958008 32.00766602 57.30438477 32.93256836 57.00024414 33.88549805 C55.06952835 39.95406947 53.20483407 46.03963075 51.39477539 52.14526367 C50.26977539 48.39526367 50.26977539 48.39526367 51.39477539 46.14526367 C50.26571777 46.15050049 49.13666016 46.1557373 47.97338867 46.16113281 C43.74276538 46.17937537 39.51214549 46.19076537 35.28149414 46.20019531 C33.45824598 46.20519184 31.63500177 46.21199131 29.81176758 46.22070312 C27.17536439 46.23297554 24.53901465 46.23853892 21.90258789 46.24291992 C21.10112335 46.24808121 20.29965881 46.25324249 19.47390747 46.25856018 C13.7291627 46.25911643 8.0998248 45.80809859 2.39477539 45.14526367 C2.39477539 44.81526367 2.39477539 44.48526367 2.39477539 44.14526367 C5.36477539 44.14526367 8.33477539 44.14526367 11.39477539 44.14526367 C11.53915039 43.03151367 11.68352539 41.91776367 11.83227539 40.77026367 C12.39477539 37.14526367 12.39477539 37.14526367 13.39477539 35.14526367 C12.49122314 35.15050049 11.5876709 35.1557373 10.65673828 35.16113281 C7.3152605 35.17814053 3.97382847 35.19069701 0.63232422 35.20019531 C-0.81592533 35.20523468 -2.26416978 35.2120662 -3.71240234 35.22070312 C-5.78997049 35.23278614 -7.86747158 35.23849578 -9.94506836 35.24291992 C-11.19666748 35.24815674 -12.4482666 35.25339355 -13.73779297 35.25878906 C-16.60522461 35.14526367 -16.60522461 35.14526367 -17.60522461 34.14526367 C-17.09805734 28.8131537 -15.78800986 23.88122541 -14.23022461 18.77026367 C-14.00616943 18.02583008 -13.78211426 17.28139648 -13.55126953 16.5144043 C-12.90846603 14.38951074 -12.25753969 12.26725248 -11.60522461 10.14526367 C-11.2997168 9.13206055 -10.99420898 8.11885742 -10.67944336 7.07495117 C-10.05302624 5.07684119 -9.34047759 3.10593829 -8.60522461 1.14526367 C-5.72072224 -0.29698751 -3.22313235 0.00998813 0 0 Z " fill="#CD4F01" transform="translate(93.605224609375,111.854736328125)"/>
<path d="M0 0 C0.68707555 2.49064888 1 4.37886292 1 7 C9.91 7 18.82 7 28 7 C28 18.76 28 18.76 25 25 C24.835 26.19625 24.67 27.3925 24.5 28.625 C23.9657587 32.23112875 22.87128718 33.93108903 21 37 C20.48729352 38.95469346 19.97786456 40.9110864 19.53515625 42.8828125 C18.98354622 45.0650945 18.25600222 47.09181798 17.4375 49.1875 C16.29860766 52.10375462 15.4854211 54.89330495 15 58 C14.34 58 13.68 58 13 58 C13.04125 59.27875 13.0825 60.5575 13.125 61.875 C13.1953125 64.0546875 13.1953125 64.0546875 13 66 C11 68 11 68 8.234375 68.1953125 C7.08453125 68.17210938 5.9346875 68.14890625 4.75 68.125 C3.5021875 68.10953125 2.254375 68.0940625 0.96875 68.078125 C-1.67708333 68.02604167 -4.32291667 67.97395833 -6.96875 67.921875 C-8.2165625 67.90640625 -9.464375 67.8909375 -10.75 67.875 C-11.89984375 67.85179688 -13.0496875 67.82859375 -14.234375 67.8046875 C-17.14348956 67.70646477 -17.14348956 67.70646477 -19 70 C-20.97502558 62.87361903 -18.41163861 57.46874371 -15.875 50.75 C-13.02458913 42.89587575 -10.3144617 35.11547914 -8.3125 27 C-6.04293821 17.82143521 -3.10366529 8.92703727 0 0 Z " fill="#D7A706" transform="translate(47,59)"/>
<path d="M0 0 C19.8 0 39.6 0 60 0 C59 10 59 10 57 13 C56.65777555 17.65417169 56.65777555 17.65417169 58 22 C57.34 22 56.68 22 56 22 C55.566875 23.4540625 55.566875 23.4540625 55.125 24.9375 C54 28 54 28 52 29 C50.09018054 29.09119671 48.17712814 29.11752537 46.26513672 29.11352539 C45.06404266 29.11344986 43.86294861 29.11337433 42.62545776 29.11329651 C41.32335358 29.10813522 40.02124939 29.10297394 38.6796875 29.09765625 C37.33733167 29.09579138 35.99497516 29.0943678 34.65261841 29.09336853 C31.11804325 29.08954878 27.58350913 29.07972312 24.0489502 29.06866455 C20.44279536 29.05843878 16.8366339 29.05386841 13.23046875 29.04882812 C6.15362904 29.03810038 -0.9231828 29.02103045 -8 29 C-8.16188142 23.9987162 -6.81999123 20.70687386 -5 16 C-3.35 10.72 -1.7 5.44 0 0 Z " fill="#FDC301" transform="translate(89,35)"/>
<path d="M0 0 C2.90834885 -0.26660183 5.60138268 -0.34779124 8.5078125 -0.29296875 C9.34843231 -0.28872391 10.18905212 -0.28447906 11.05514526 -0.28010559 C13.74541993 -0.26328532 16.43495099 -0.22562781 19.125 -0.1875 C20.94660378 -0.17245745 22.76821928 -0.1587683 24.58984375 -0.14648438 C29.06018324 -0.11337094 33.52996546 -0.06156637 38 0 C38 0.66 38 1.32 38 2 C22.655 2.495 22.655 2.495 7 3 C7 3.99 7 4.98 7 6 C6.34 6 5.68 6 5 6 C5 6.99 5 7.98 5 9 C4.34 9 3.68 9 3 9 C2.67 10.65 2.34 12.3 2 14 C1.34 14 0.68 14 0 14 C-0.185625 15.8871875 -0.185625 15.8871875 -0.375 17.8125 C-0.69868059 21.10325263 -1.06604999 22.09907498 -3 25 C-3.39387788 27.32387947 -3.73486085 29.65793749 -4 32 C-8.63014289 33.17147057 -13.08902564 33.13421864 -17.8293457 33.11352539 C-19.14717293 33.11374443 -19.14717293 33.11374443 -20.49162292 33.1139679 C-23.38636776 33.11327299 -26.2810477 33.10550036 -29.17578125 33.09765625 C-31.18645696 33.09579057 -33.19713312 33.09436737 -35.20780945 33.09336853 C-40.49318706 33.08955517 -45.77853708 33.07973495 -51.06390381 33.06866455 C-56.45991645 33.05842505 -61.85593356 33.05386547 -67.25195312 33.04882812 C-77.83464752 33.03811163 -88.41732146 33.02104937 -99 33 C-99.26595474 34.07741455 -99.53190948 35.1548291 -99.80592346 36.26489258 C-100.16293972 37.70395741 -100.52003522 39.14300259 -100.87719727 40.58203125 C-101.05151527 41.28912231 -101.22583328 41.99621338 -101.40543365 42.72473145 C-103.02123461 49.22297757 -104.92693047 55.61322394 -106.9375 62 C-107.46017456 63.68017212 -107.46017456 63.68017212 -107.9934082 65.39428711 C-108.99092833 68.5976791 -109.99414458 71.79921687 -111 75 C-112.04424561 78.32636008 -112.04424561 78.32636008 -113.08813477 81.65283203 C-113.67662892 83.52786309 -114.26604023 85.40260621 -114.85546875 87.27734375 C-116.33577419 92.09212562 -117.72343747 96.93214082 -119.11914062 101.77197266 C-120.47439355 106.40099508 -122.01589058 110.91287977 -123.6875 115.4375 C-125.43026916 120.17328577 -126.62017406 124.68784787 -127.4765625 129.6484375 C-128.23725407 133.06587276 -129.62764035 136.14510837 -130.9921875 139.359375 C-132.43458017 143.13866742 -133.31214814 147.00230408 -134.19140625 150.9453125 C-134.96967095 153.8854236 -135.99612615 156.64890971 -137.08813477 159.48388672 C-139.17645592 165.24619939 -140.88897572 171.14178656 -142.6875 177 C-143.10720091 178.36074526 -143.52712102 179.72142292 -143.94726562 181.08203125 C-144.96737219 184.38724539 -145.9845088 187.6933645 -147 191 C-149.31 191 -151.62 191 -154 191 C-154.50161564 183.84134973 -152.71943169 178.32317766 -150.3125 171.625 C-147.80463721 164.40013669 -145.39205605 157.2075035 -143.4375 149.8125 C-141.69419548 143.2663804 -139.67517601 136.85296585 -137.5 130.4375 C-135.42620513 124.32082468 -133.41109215 118.20717366 -131.625 112 C-129.39019586 104.23989422 -127.02051244 96.52445636 -124.625 88.8125 C-124.23618652 87.56041748 -123.84737305 86.30833496 -123.44677734 85.01831055 C-120.80985692 76.54954928 -118.11607087 68.10024791 -115.39428711 59.65844727 C-113.26015441 52.97661686 -111.34498858 46.24746493 -109.59667969 39.4543457 C-108.21077972 34.21077972 -108.21077972 34.21077972 -106 32 C-102.98850609 31.78201123 -100.06633389 31.68854171 -97.05224609 31.68115234 C-96.12536484 31.67110672 -95.19848358 31.6610611 -94.24351501 31.65071106 C-91.17016234 31.61974213 -88.0968973 31.60280593 -85.0234375 31.5859375 C-82.89636473 31.56723687 -80.76929946 31.54766431 -78.64224243 31.5272522 C-73.03629977 31.4758082 -67.43033303 31.43624826 -61.82427979 31.39910889 C-56.10675031 31.35914597 -50.38932208 31.30801855 -44.671875 31.2578125 C-33.44798766 31.16090803 -22.22404332 31.07654988 -11 31 C-10.03516185 28.12412705 -9.07184008 25.24776087 -8.109375 22.37109375 C-7.83786621 21.56232788 -7.56635742 20.75356201 -7.28662109 19.92028809 C-5.61756728 14.92707772 -4.03755642 9.92496469 -2.640625 4.84765625 C-2 3 -2 3 0 0 Z " fill="#CA9A98" transform="translate(154,0)"/>
<path d="M0 0 C0.67822311 -0.00335861 1.35644623 -0.00671722 2.05522156 -0.01017761 C4.30253926 -0.01969504 6.54978253 -0.02163109 8.79711914 -0.02270508 C10.35649141 -0.02591703 11.91586336 -0.02928105 13.47523499 -0.03279114 C16.74619241 -0.03878433 20.01712341 -0.04063084 23.28808594 -0.04003906 C27.48259558 -0.03993741 31.67693607 -0.05359194 35.8714056 -0.07081127 C39.09270509 -0.08192119 42.31396354 -0.08395859 45.53528023 -0.08342934 C47.0818598 -0.08461089 48.62844038 -0.08904245 50.17500114 -0.0967617 C52.3368406 -0.10654173 54.49831105 -0.10369166 56.66015625 -0.09765625 C57.89100449 -0.09908127 59.12185272 -0.10050629 60.38999939 -0.10197449 C63.39477539 0.14526367 63.39477539 0.14526367 66.39477539 2.14526367 C66.13075544 3.45915119 65.85802175 4.77128707 65.58227539 6.08276367 C65.35604492 7.17911133 65.35604492 7.17911133 65.12524414 8.29760742 C64.31124984 11.47087931 63.29128786 14.53490468 62.23974609 17.63623047 C60.73627752 22.10058948 59.32163405 26.59345509 57.89477539 31.08276367 C57.59958008 32.00766602 57.30438477 32.93256836 57.00024414 33.88549805 C55.06952835 39.95406947 53.20483407 46.03963075 51.39477539 52.14526367 C50.26977539 48.39526367 50.26977539 48.39526367 51.39477539 46.14526367 C50.26571777 46.15050049 49.13666016 46.1557373 47.97338867 46.16113281 C43.74276538 46.17937537 39.51214549 46.19076537 35.28149414 46.20019531 C33.45824598 46.20519184 31.63500177 46.21199131 29.81176758 46.22070312 C27.17536439 46.23297554 24.53901465 46.23853892 21.90258789 46.24291992 C21.10112335 46.24808121 20.29965881 46.25324249 19.47390747 46.25856018 C13.7291627 46.25911643 8.0998248 45.80809859 2.39477539 45.14526367 C2.39477539 44.81526367 2.39477539 44.48526367 2.39477539 44.14526367 C5.36477539 44.14526367 8.33477539 44.14526367 11.39477539 44.14526367 C11.53915039 43.03151367 11.68352539 41.91776367 11.83227539 40.77026367 C12.39477539 37.14526367 12.39477539 37.14526367 13.39477539 35.14526367 C12.49122314 35.15050049 11.5876709 35.1557373 10.65673828 35.16113281 C7.3152605 35.17814053 3.97382847 35.19069701 0.63232422 35.20019531 C-0.81592533 35.20523468 -2.26416978 35.2120662 -3.71240234 35.22070312 C-5.78997049 35.23278614 -7.86747158 35.23849578 -9.94506836 35.24291992 C-11.19666748 35.24815674 -12.4482666 35.25339355 -13.73779297 35.25878906 C-16.60522461 35.14526367 -16.60522461 35.14526367 -17.60522461 34.14526367 C-17.09805734 28.8131537 -15.78800986 23.88122541 -14.23022461 18.77026367 C-14.00616943 18.02583008 -13.78211426 17.28139648 -13.55126953 16.5144043 C-12.90846603 14.38951074 -12.25753969 12.26725248 -11.60522461 10.14526367 C-11.2997168 9.13206055 -10.99420898 8.11885742 -10.67944336 7.07495117 C-10.05302624 5.07684119 -9.34047759 3.10593829 -8.60522461 1.14526367 C-5.72072224 -0.29698751 -3.22313235 0.00998813 0 0 Z M0.39477539 3.14526367 C0.06477539 5.12526367 -0.26522461 7.10526367 -0.60522461 9.14526367 C-1.59522461 9.64026367 -1.59522461 9.64026367 -2.60522461 10.14526367 C-6.61778646 17.48072831 -7.32330579 24.81279132 -8.60522461 33.14526367 C1.29477539 33.14526367 11.19477539 33.14526367 21.39477539 33.14526367 C22.38477539 30.17526367 23.37477539 27.20526367 24.39477539 24.14526367 C23.73477539 30.41526367 23.07477539 36.68526367 22.39477539 43.14526367 C31.30477539 43.14526367 40.21477539 43.14526367 49.39477539 43.14526367 C49.72477539 41.82526367 50.05477539 40.50526367 50.39477539 39.14526367 C51.05477539 38.81526367 51.71477539 38.48526367 52.39477539 38.14526367 C52.39477539 37.15526367 52.39477539 36.16526367 52.39477539 35.14526367 C53.05477539 35.14526367 53.71477539 35.14526367 54.39477539 35.14526367 C54.6487207 33.97608398 54.90266602 32.8069043 55.16430664 31.60229492 C55.51149706 30.05401331 55.8591793 28.50584192 56.20727539 26.95776367 C56.37291992 26.18883789 56.53856445 25.41991211 56.70922852 24.62768555 C57.46415805 21.30884439 58.09380459 18.62821681 59.90649414 15.71948242 C62.14830174 12.15976869 62.14830174 12.15976869 63.39477539 3.14526367 C53.16477539 3.14526367 42.93477539 3.14526367 32.39477539 3.14526367 C29.1121178 12.09609398 29.1121178 12.09609398 26.39477539 21.14526367 C26.88308146 16.34358729 27.58034512 12.62085835 29.39477539 8.14526367 C29.39477539 6.49526367 29.39477539 4.84526367 29.39477539 3.14526367 C19.82477539 3.14526367 10.25477539 3.14526367 0.39477539 3.14526367 Z " fill="#B44C1B" transform="translate(93.605224609375,111.854736328125)"/>
<path d="M0 0 C1.11503906 0.00322266 2.23007813 0.00644531 3.37890625 0.00976562 C4.53777344 0.01814453 5.69664063 0.02652344 6.890625 0.03515625 C8.06496094 0.03966797 9.23929688 0.04417969 10.44921875 0.04882812 C13.34640572 0.06060531 16.24348954 0.07705299 19.140625 0.09765625 C19.47588439 10.92174502 16.73473949 21.77413209 11.140625 31.09765625 C8.32238308 32.50677721 5.96811218 32.20949178 2.8203125 32.1953125 C1.56347656 32.19208984 0.30664062 32.18886719 -0.98828125 32.18554688 C-2.30699219 32.17716797 -3.62570313 32.16878906 -4.984375 32.16015625 C-6.32421711 32.15514114 -7.664061 32.15057826 -9.00390625 32.14648438 C-12.28910706 32.13466711 -15.57421897 32.11819242 -18.859375 32.09765625 C-18.57619368 29.53396155 -18.28315007 26.97204099 -17.984375 24.41015625 C-17.90574219 23.68892578 -17.82710937 22.96769531 -17.74609375 22.22460938 C-17.2697699 18.21249693 -16.59637358 14.79790113 -14.859375 11.09765625 C-14.199375 11.09765625 -13.539375 11.09765625 -12.859375 11.09765625 C-12.859375 10.10765625 -12.859375 9.11765625 -12.859375 8.09765625 C-12.199375 8.09765625 -11.539375 8.09765625 -10.859375 8.09765625 C-10.529375 5.78765625 -10.199375 3.47765625 -9.859375 1.09765625 C-6.51551102 0.08680197 -3.4845632 -0.01777838 0 0 Z " fill="#FCC302" transform="translate(65.859375,34.90234375)"/>
<path d="M0 0 C1.20527344 0.00322266 2.41054687 0.00644531 3.65234375 0.00976562 C4.90660156 0.01814453 6.16085938 0.02652344 7.453125 0.03515625 C9.35771484 0.04192383 9.35771484 0.04192383 11.30078125 0.04882812 C14.43494336 0.06061069 17.56901041 0.07706209 20.703125 0.09765625 C20.703125 2.07765625 20.703125 4.05765625 20.703125 6.09765625 C19.713125 6.09765625 18.723125 6.09765625 17.703125 6.09765625 C17.66574219 7.03867188 17.62835938 7.9796875 17.58984375 8.94921875 C17.52410156 10.19445313 17.45835937 11.4396875 17.390625 12.72265625 C17.30361328 14.56730469 17.30361328 14.56730469 17.21484375 16.44921875 C16.67649966 20.28748883 15.6031379 22.74800388 13.703125 26.09765625 C13.043125 27.41765625 12.383125 28.73765625 11.703125 30.09765625 C1.803125 30.09765625 -8.096875 30.09765625 -18.296875 30.09765625 C-17.171875 21.09765625 -17.171875 21.09765625 -16.10546875 17.37890625 C-15.88310547 16.59257812 -15.66074219 15.80625 -15.43164062 14.99609375 C-15.20154297 14.20460938 -14.97144531 13.413125 -14.734375 12.59765625 C-14.50041016 11.77523438 -14.26644531 10.9528125 -14.02539062 10.10546875 C-13.45445428 8.10136567 -12.87640795 6.09929034 -12.296875 4.09765625 C-11.636875 4.09765625 -10.976875 4.09765625 -10.296875 4.09765625 C-10.296875 3.10765625 -10.296875 2.11765625 -10.296875 1.09765625 C-6.82022405 0.02877101 -3.62550022 -0.01710142 0 0 Z " fill="#FCC304" transform="translate(171.296875,1.90234375)"/>
<path d="M0 0 C-0.4302337 7.6700283 -1.74231361 14.65896942 -4 22 C-4.66 22 -5.32 22 -6 22 C-5.95875 23.27875 -5.9175 24.5575 -5.875 25.875 C-5.8046875 28.0546875 -5.8046875 28.0546875 -6 30 C-8 32 -8 32 -10.765625 32.1953125 C-11.91546875 32.17210937 -13.0653125 32.14890625 -14.25 32.125 C-15.4978125 32.10953125 -16.745625 32.0940625 -18.03125 32.078125 C-20.67708333 32.02604167 -23.32291667 31.97395833 -25.96875 31.921875 C-27.2165625 31.90640625 -28.464375 31.8909375 -29.75 31.875 C-30.89984375 31.85179687 -32.0496875 31.82859375 -33.234375 31.8046875 C-36.14348956 31.70646477 -36.14348956 31.70646477 -38 34 C-38.99928065 29.00359673 -39.12039317 25.68718491 -37 21 C-36.34 20.67 -35.68 20.34 -35 20 C-34.28583662 18.27675557 -33.65167151 16.51988068 -33.0625 14.75 C-30.76982244 7.88124942 -28.55221407 3.54911596 -22 0 C-21.01 0.33 -20.02 0.66 -19 1 C-18.67 0.67 -18.34 0.34 -18 0 C-16.23501627 -0.23630361 -14.46206484 -0.41442373 -12.6875 -0.5625 C-11.72199219 -0.64628906 -10.75648437 -0.73007813 -9.76171875 -0.81640625 C-6.20421371 -1.05290234 -3.40805162 -1.13601721 0 0 Z " fill="#EB7B02" transform="translate(66,95)"/>
<path d="M0 0 C0.66 0.66 1.32 1.32 2 2 C2.33 1.67 2.66 1.34 3 1 C5.07262076 0.91232888 7.14820294 0.89304127 9.22265625 0.90234375 C10.48271484 0.90556641 11.74277344 0.90878906 13.04101562 0.91210938 C14.38151109 0.92046597 15.72200588 0.92893093 17.0625 0.9375 C18.40689942 0.9425134 19.7513006 0.94707658 21.09570312 0.95117188 C24.39717941 0.96300512 27.69856803 0.97949029 31 1 C30.00935728 5.78593685 29.04512674 10.42282183 27.125 14.9375 C26.81820312 15.66839844 26.51140625 16.39929688 26.1953125 17.15234375 C25.80085938 18.09207031 25.40640625 19.03179687 25 20 C23.68 23.3 22.36 26.6 21 30 C12.42 30 3.84 30 -5 30 C-5.9902382 25.04880901 -5.65979427 21.5213135 -4.75 16.6875 C-4.62753906 15.96626953 -4.50507813 15.24503906 -4.37890625 14.50195312 C-3.45414574 9.39745823 -1.93576183 4.81221692 0 0 Z " fill="#CA4E02" transform="translate(27,125)"/>
<path d="M0 0 C2.90834885 -0.26660183 5.60138268 -0.34779124 8.5078125 -0.29296875 C9.34843231 -0.28872391 10.18905212 -0.28447906 11.05514526 -0.28010559 C13.74541993 -0.26328532 16.43495099 -0.22562781 19.125 -0.1875 C20.94660378 -0.17245745 22.76821928 -0.1587683 24.58984375 -0.14648438 C29.06018324 -0.11337094 33.52996546 -0.06156637 38 0 C38 0.66 38 1.32 38 2 C22.655 2.495 22.655 2.495 7 3 C7 3.99 7 4.98 7 6 C6.34 6 5.68 6 5 6 C5 6.99 5 7.98 5 9 C4.34 9 3.68 9 3 9 C2.67 10.65 2.34 12.3 2 14 C1.34 14 0.68 14 0 14 C-0.185625 15.8871875 -0.185625 15.8871875 -0.375 17.8125 C-0.69868059 21.10325263 -1.06604999 22.09907498 -3 25 C-3.39387788 27.32387947 -3.73486085 29.65793749 -4 32 C-8.63085665 33.16142621 -13.1160413 33.1654517 -17.85766602 33.18945312 C-18.7395459 33.19774643 -19.62142578 33.20603973 -20.5300293 33.21458435 C-22.43974099 33.23194433 -24.3494735 33.2471221 -26.25921822 33.26036072 C-29.28101697 33.28143911 -32.3027111 33.30845664 -35.32444763 33.33703613 C-42.82712579 33.40676833 -50.32987886 33.46626733 -57.8326416 33.52606201 C-64.1773468 33.57700871 -70.52199519 33.63183476 -76.86662102 33.69187927 C-79.84462163 33.71844417 -82.82262762 33.73926217 -85.80067444 33.7598877 C-87.62436173 33.77649076 -89.44804661 33.79336261 -91.27172852 33.81054688 C-92.10040939 33.81473129 -92.92909027 33.81891571 -93.78288269 33.82322693 C-98.99074675 33.81189856 -98.99074675 33.81189856 -104 35 C-106.23823509 39.1567223 -107.24651064 42.31629777 -107 47 C-107.165 47.804375 -107.33 48.60875 -107.5 49.4375 C-108.06601697 52.33833697 -108.06856689 55.05162352 -108 58 C-109.485 58.495 -109.485 58.495 -111 59 C-111 59.66 -111 60.32 -111 61 C-111.66 61.66 -112.32 62.32 -113 63 C-113.38218767 64.65614657 -113.71395102 66.32457024 -114 68 C-114.33 68.99 -114.66 69.98 -115 71 C-115.103125 71.598125 -115.20625 72.19625 -115.3125 72.8125 C-116.29581051 75.94121525 -118.12289672 78.33572438 -120 81 C-120.66 80.67 -121.32 80.34 -122 80 C-121.48953125 78.53820312 -121.48953125 78.53820312 -120.96875 77.046875 C-117.13445058 65.88277177 -113.83045999 54.60803373 -110.71679688 43.22167969 C-110.23049805 41.47226074 -110.23049805 41.47226074 -109.734375 39.6875 C-109.44788086 38.63949219 -109.16138672 37.59148438 -108.86621094 36.51171875 C-108 34 -108 34 -106 32 C-102.98850609 31.78201123 -100.06633389 31.68854171 -97.05224609 31.68115234 C-96.12536484 31.67110672 -95.19848358 31.6610611 -94.24351501 31.65071106 C-91.17016234 31.61974213 -88.0968973 31.60280593 -85.0234375 31.5859375 C-82.89636473 31.56723687 -80.76929946 31.54766431 -78.64224243 31.5272522 C-73.03629977 31.4758082 -67.43033303 31.43624826 -61.82427979 31.39910889 C-56.10675031 31.35914597 -50.38932208 31.30801855 -44.671875 31.2578125 C-33.44798766 31.16090803 -22.22404332 31.07654988 -11 31 C-10.03516185 28.12412705 -9.07184008 25.24776087 -8.109375 22.37109375 C-7.83786621 21.56232788 -7.56635742 20.75356201 -7.28662109 19.92028809 C-5.61756728 14.92707772 -4.03755642 9.92496469 -2.640625 4.84765625 C-2 3 -2 3 0 0 Z " fill="#CBABA3" transform="translate(154,0)"/>
<path d="M0 0 C1 3 1 3 0 6.125 C-2 9 -2 9 -4.80297852 9.67358398 C-10.56015323 10.27513238 -16.37203045 10.12229855 -22.15234375 10.09765625 C-24.03524864 10.09553383 -24.03524864 10.09553383 -25.95619202 10.09336853 C-29.27205351 10.08873576 -32.58784452 10.07977139 -35.90368652 10.06866455 C-39.29581091 10.05838292 -42.68794261 10.05385653 -46.08007812 10.04882812 C-52.72007136 10.03782572 -59.36003161 10.02110753 -66 10 C-66.15013046 10.9371283 -66.30026093 11.87425659 -66.4549408 12.83978271 C-66.95457931 15.73665381 -67.6516645 18.35228718 -68.56640625 21.140625 C-69.04122437 22.60278442 -69.04122437 22.60278442 -69.52563477 24.09448242 C-69.86780029 25.13580322 -70.20996582 26.17712402 -70.5625 27.25 C-73.4693883 36.20769317 -76.3105793 45.18096858 -79.0625 54.1875 C-81.86607712 63.3520882 -84.72396565 72.49702223 -87.65454102 81.62182617 C-89.50615949 87.39750131 -91.25638145 93.18793816 -93 99 C-83.43 99 -73.86 99 -64 99 C-64 99.66 -64 100.32 -64 101 C-82.15 101 -100.3 101 -119 101 C-119 100.67 -119 100.34 -119 100 C-111.41 99.67 -103.82 99.34 -96 99 C-93.97947421 93.61193123 -92.63366302 89.97659518 -91.875 84.5625 C-91.09489051 79.09489051 -91.09489051 79.09489051 -90 78 C-89.63239269 75.67182036 -89.29758419 73.3381615 -89 71 C-87.515 70.505 -87.515 70.505 -86 70 C-85.505 65.05 -85.505 65.05 -85 60 C-84.34 60 -83.68 60 -83 60 C-82.96261719 59.41992188 -82.92523438 58.83984375 -82.88671875 58.2421875 C-82.45402589 53.10077825 -81.44642394 49.59927701 -79 45 C-78.61210981 43.61315973 -78.25907496 42.21620021 -77.9375 40.8125 C-77 37 -77 37 -75 34 C-74.855625 32.9275 -74.71125 31.855 -74.5625 30.75 C-74 27 -74 27 -72.5 23.6875 C-70.87760801 19.69911968 -70.56491722 16.49194532 -70.40625 12.234375 C-69.89348299 9.41415647 -69.29473566 8.70356604 -67 7 C-64.17158508 6.60127258 -64.17158508 6.60127258 -60.69262695 6.56762695 C-59.39150467 6.54783279 -58.09038239 6.52803864 -56.74983215 6.50764465 C-55.32931665 6.50087483 -53.90879958 6.49442797 -52.48828125 6.48828125 C-51.03523739 6.47143671 -49.58220812 6.45328676 -48.12919617 6.43388367 C-44.30700236 6.38635258 -40.4848677 6.35656365 -36.66247559 6.33044434 C-32.76119299 6.30065427 -28.86011429 6.25411868 -24.95898438 6.20898438 C-17.30609068 6.12291604 -9.65318222 6.05558681 -2 6 C-1.855625 5.38125 -1.71125 4.7625 -1.5625 4.125 C-1 2 -1 2 0 0 Z " fill="#EFD565" transform="translate(145,57)"/>
<path d="M0 0 C1.48917756 2.97835511 0.37526768 4.69569873 -0.58984375 7.84375 C-0.95819336 9.05780518 -1.32654297 10.27186035 -1.70605469 11.52270508 C-2.11639243 12.84851464 -2.52687777 14.17427852 -2.9375 15.5 C-3.35252569 16.85877349 -3.76690712 18.21774392 -4.18066406 19.5769043 C-5.24077154 23.05258961 -6.30957125 26.52552677 -7.3817749 29.99749756 C-8.32606011 33.05614633 -9.26626719 36.11604794 -10.20703125 39.17578125 C-11.22014257 42.4691092 -12.23439142 45.76205709 -13.25292969 49.05371094 C-15.3307008 55.7766501 -17.32631409 62.51855647 -19.27172852 69.28076172 C-20.91405065 74.90096612 -22.91325062 80.34147908 -24.94140625 85.83203125 C-26.16580176 89.49618164 -26.91069262 93.0934863 -27.4453125 96.9140625 C-28.11996907 99.45115129 -29.3280805 101.002734 -31 103 C-31 101.02 -31 99.04 -31 97 C-30.34 97 -29.68 97 -29 97 C-28.95101563 95.89140625 -28.90203125 94.7828125 -28.8515625 93.640625 C-28.77650785 92.17705935 -28.70096119 90.71351888 -28.625 89.25 C-28.5940625 88.52039063 -28.563125 87.79078125 -28.53125 87.0390625 C-28.14095978 79.88374174 -28.14095978 79.88374174 -26 77 C-24.515 76.505 -24.515 76.505 -23 76 C-22.83322718 72.58343976 -22.83322718 72.58343976 -23 69 C-23.66 68.34 -24.32 67.68 -25 67 C-24.75 64.0625 -24.75 64.0625 -24.40234375 62.1875 C-24.10900996 60.59267552 -23.8807342 58.98548587 -23.69140625 57.375 C-22.8628546 51.2249259 -21.47035887 47.4438826 -17.2421875 42.8515625 C-15.63674641 40.45854653 -15.93554468 38.82682597 -16 36 C-15.34 35.34 -14.68 34.68 -14 34 C-13.83312552 31.41645782 -13.83312552 31.41645782 -14 29 C-13.01 28.67 -12.02 28.34 -11 28 C-11 27.34 -11 26.68 -11 26 C-10.34 25.67 -9.68 25.34 -9 25 C-9.01160156 24.30132812 -9.02320312 23.60265625 -9.03515625 22.8828125 C-9.04417969 21.97273438 -9.05320312 21.06265625 -9.0625 20.125 C-9.07410156 19.22007813 -9.08570312 18.31515625 -9.09765625 17.3828125 C-9 15 -9 15 -8 13 C-7.87625 12.278125 -7.7525 11.55625 -7.625 10.8125 C-6.83323632 7.24956345 -5.68235443 4.24009001 -4 1 C-1.8125 0.0625 -1.8125 0.0625 0 0 Z " fill="#CC9A8F" transform="translate(54,33)"/>
<path d="M0 0 C1 3 1 3 0 6 C41.25 6 82.5 6 125 6 C124.505 4.02 124.505 4.02 124 2 C124.66 2 125.32 2 126 2 C126 4.31 126 6.62 126 9 C83.43 9 40.86 9 -3 9 C-2 3 -2 3 0 0 Z " fill="#723B11" transform="translate(10,182)"/>
<path d="M0 0 C0.33 0 0.66 0 1 0 C1.10846163 5.20615812 0.65734931 9.74120549 0 15 C8.58 15 17.16 15 26 15 C26.61875 12.875625 27.2375 10.75125 27.875 8.5625 C28.51798774 6.35490875 29.21376109 4.16072227 30 2 C30.66 1.67 31.32 1.34 32 1 C31.65413697 5.75561667 30.96485121 9.44385108 28.953125 13.78515625 C28.58864258 14.57929932 28.22416016 15.37344238 27.84863281 16.19165039 C27.56858398 16.78840576 27.28853516 17.38516113 27 18 C27.62749649 17.99777939 28.25499298 17.99555878 28.90150452 17.99327087 C60.28431807 17.88750496 91.63303276 17.92380877 123 19 C122.71926927 21.14729141 122.42511501 23.29283193 122.125 25.4375 C121.88136719 27.22994141 121.88136719 27.22994141 121.6328125 29.05859375 C121.42398438 30.02925781 121.21515625 30.99992187 121 32 C120.01 32.495 120.01 32.495 119 33 C117.76771944 27.82442163 118.17376132 26.47871603 120 21 C79.08 20.67 38.16 20.34 -4 20 C-4.33 22.64 -4.66 25.28 -5 28 C-6.0625 31 -6.0625 31 -7 33 C-7.66 33 -8.32 33 -9 33 C-8.26743284 26.26038216 -6.56729397 19.8414068 -4.00390625 13.55859375 C-2.92208565 10.80142451 -2.13363545 8.04962467 -1.375 5.1875 C-1.11460938 4.21167969 -0.85421875 3.23585937 -0.5859375 2.23046875 C-0.39257812 1.49441406 -0.19921875 0.75835937 0 0 Z " fill="#8F471F" transform="translate(22,139)"/>
<path d="M0 0 C10.23 0 20.46 0 31 0 C29 10 29 10 26 13 C26 12.34 26 11.68 26 11 C16.43 11 6.86 11 -3 11 C-2 5 -2 5 0 0 Z " fill="#F17103" transform="translate(126,115)"/>
<path d="M0 0 C0.98086578 0.00007553 1.96173157 0.00015106 2.97232056 0.00022888 C4.03381317 0.00539017 5.09530579 0.01055145 6.18896484 0.01586914 C7.27374115 0.01728409 8.35851746 0.01869904 9.47616577 0.02015686 C12.95077234 0.02576737 16.42531515 0.03832167 19.89990234 0.05102539 C22.25146392 0.05603904 24.60302649 0.06060218 26.95458984 0.06469727 C32.7280492 0.07574021 38.50147122 0.0924886 44.27490234 0.11352539 C44.27490234 0.77352539 44.27490234 1.43352539 44.27490234 2.11352539 C30.08490234 1.78352539 15.89490234 1.45352539 1.27490234 1.11352539 C0.94490234 4.08352539 0.61490234 7.05352539 0.27490234 10.11352539 C-0.55712891 12.65258789 -0.55712891 12.65258789 -1.53759766 14.73852539 C-4.3754813 21.30827801 -5.98962922 28.19011408 -7.72509766 35.11352539 C-10.05804541 35.15594262 -12.39212332 35.15445476 -14.72509766 35.11352539 C-15.05509766 34.78352539 -15.38509766 34.45352539 -15.72509766 34.11352539 C-15.21793038 28.78141542 -13.90788291 23.84948713 -12.35009766 18.73852539 C-12.12604248 17.9940918 -11.9019873 17.2496582 -11.67114258 16.48266602 C-11.02833908 14.35777246 -10.37741273 12.2355142 -9.72509766 10.11352539 C-9.41958984 9.10032227 -9.11408203 8.08711914 -8.79931641 7.04321289 C-8.17289929 5.04510291 -7.46035064 3.07420001 -6.72509766 1.11352539 C-4.28542269 -0.10631209 -2.72605241 -0.00698988 0 0 Z " fill="#DBB9A7" transform="translate(91.72509765625,111.886474609375)"/>
<path d="M0 0 C9.57 0 19.14 0 29 0 C28 9 28 9 26 11 C23.11083984 11.22705078 23.11083984 11.22705078 19.4609375 11.1953125 C17.50800781 11.18564453 17.50800781 11.18564453 15.515625 11.17578125 C14.13541405 11.15906929 12.75520571 11.14213939 11.375 11.125 C9.98698548 11.11497006 8.59896411 11.10584423 7.2109375 11.09765625 C3.80711974 11.07401863 0.40364494 11.04106867 -3 11 C-3 9.68 -3 8.36 -3 7 C-2.34 6.67 -1.68 6.34 -1 6 C-0.67 4.02 -0.34 2.04 0 0 Z " fill="#F17106" transform="translate(94,115)"/>
<path d="M0 0 C3.43742918 -0.05802698 6.87473253 -0.09360486 10.3125 -0.125 C11.28896484 -0.14175781 12.26542969 -0.15851563 13.27148438 -0.17578125 C14.67817383 -0.18544922 14.67817383 -0.18544922 16.11328125 -0.1953125 C16.97735596 -0.20578613 17.84143066 -0.21625977 18.73168945 -0.22705078 C21 0 21 0 24 2 C23.73598005 3.31388752 23.46324636 4.62602339 23.1875 5.9375 C22.96126953 7.03384766 22.96126953 7.03384766 22.73046875 8.15234375 C21.91215536 11.34245316 20.88424853 14.42307769 19.8269043 17.54077148 C18.4297715 21.69587 17.12646855 25.88051122 15.8125 30.0625 C15.53986328 30.92810547 15.26722656 31.79371094 14.98632812 32.68554688 C14.32355085 34.7901554 13.66145111 36.89497438 13 39 C12.67 39 12.34 39 12 39 C11.3878472 30.12378435 13.00049657 20.49925515 18 13 C18.99 9.7 19.98 6.4 21 3 C10.77 3 0.54 3 -10 3 C-10.99 6.63 -11.98 10.26 -13 14 C-13.96467347 16.67964852 -14.95089782 19.35226593 -16 22 C-17.6761137 17.90986092 -16.23898062 14.28091401 -15.0625 10.25 C-14.381875 7.8575 -13.70125 5.465 -13 3 C-22.57 3 -32.14 3 -42 3 C-42 4.98 -42 6.96 -42 9 C-42.99 9.495 -42.99 9.495 -44 10 C-43.67 7.03 -43.34 4.06 -43 1 C-38.80485403 0.97492787 -34.60974994 0.95696761 -30.41455078 0.94506836 C-28.99299356 0.94009788 -27.57144128 0.93331916 -26.14990234 0.92456055 C-17.38565643 0.87198744 -8.72733736 1.07974938 0 2 C0 1.34 0 0.68 0 0 Z " fill="#D98D43" transform="translate(136,112)"/>
<path d="M0 0 C0.495 0.99 0.495 0.99 1 2 C-0.11864441 2.01030746 -1.23728882 2.02061493 -2.38983154 2.03123474 C-12.92539982 2.12893664 -23.46090861 2.23166776 -33.99637985 2.33933926 C-39.41293051 2.39453379 -44.82948659 2.44794832 -50.24609375 2.49731445 C-55.47214719 2.54500908 -60.69813516 2.59735385 -65.92411041 2.65294075 C-67.91920596 2.67334117 -69.91431944 2.69205807 -71.90944672 2.70907402 C-74.70109039 2.73316914 -77.49261067 2.76321685 -80.28417969 2.79467773 C-81.52495773 2.80331093 -81.52495773 2.80331093 -82.790802 2.81211853 C-87.99455825 2.8108462 -87.99455825 2.8108462 -93 4 C-95.23823509 8.1567223 -96.24651064 11.31629777 -96 16 C-96.165 16.804375 -96.33 17.60875 -96.5 18.4375 C-97.06601697 21.33833697 -97.06856689 24.05162352 -97 27 C-97.99 27.33 -98.98 27.66 -100 28 C-100 28.66 -100 29.32 -100 30 C-100.66 30.66 -101.32 31.32 -102 32 C-102.38218767 33.65614657 -102.71395102 35.32457024 -103 37 C-103.33 37.99 -103.66 38.98 -104 40 C-104.103125 40.598125 -104.20625 41.19625 -104.3125 41.8125 C-105.29581051 44.94121525 -107.12289672 47.33572438 -109 50 C-109.66 49.67 -110.32 49.34 -111 49 C-110.48953125 47.53820312 -110.48953125 47.53820312 -109.96875 46.046875 C-106.13445058 34.88277177 -102.83045999 23.60803373 -99.71679688 12.22167969 C-99.39259766 11.05540039 -99.06839844 9.88912109 -98.734375 8.6875 C-98.44788086 7.63949219 -98.16138672 6.59148438 -97.86621094 5.51171875 C-97 3 -97 3 -95 1 C-91.98850609 0.78201123 -89.06633389 0.68854171 -86.05224609 0.68115234 C-85.12536484 0.67110672 -84.19848358 0.6610611 -83.24351501 0.65071106 C-80.17016234 0.61974213 -77.0968973 0.60280593 -74.0234375 0.5859375 C-71.89636473 0.56723687 -69.76929946 0.54766431 -67.64224243 0.5272522 C-62.03629977 0.4758082 -56.43033303 0.43624826 -50.82427979 0.39910889 C-45.10675031 0.35914597 -39.38932208 0.30801855 -33.671875 0.2578125 C-22.44798766 0.16090803 -11.22404332 0.07654988 0 0 Z " fill="#EDDFB2" transform="translate(143,31)"/>
<path d="M0 0 C1 2 1 2 -0.109375 5.7109375 C-0.65028861 7.26770914 -1.19757763 8.82227497 -1.75 10.375 C-3.50416437 15.44617489 -5.20943204 20.4424442 -6.375 25.6875 C-8.02832506 32.83186827 -10.61944608 39.67487866 -13.13232422 46.5534668 C-15.07393305 51.95722707 -16.566318 57.13437807 -17.40795898 62.82177734 C-18.10856557 65.39943176 -19.29488856 66.96934891 -21 69 C-21 67.02 -21 65.04 -21 63 C-20.34 63 -19.68 63 -19 63 C-18.95101563 61.89140625 -18.90203125 60.7828125 -18.8515625 59.640625 C-18.77650785 58.17705935 -18.70096119 56.71351888 -18.625 55.25 C-18.5940625 54.52039063 -18.563125 53.79078125 -18.53125 53.0390625 C-18.14095978 45.88374174 -18.14095978 45.88374174 -16 43 C-14.515 42.505 -14.515 42.505 -13 42 C-13 39.69 -13 37.38 -13 35 C-13.33 35 -13.66 35 -14 35 C-13.38909774 28.52443609 -13.38909774 28.52443609 -11.5625 26.0625 C-10 25 -10 25 -8 25 C-7.96261719 24.43152344 -7.92523438 23.86304687 -7.88671875 23.27734375 C-7.43339508 17.95301276 -6.30299684 13.88235331 -4 9 C-3.4740625 7.39125 -3.4740625 7.39125 -2.9375 5.75 C-2 3 -2 3 0 0 Z " fill="#D4937F" transform="translate(44,67)"/>
<path d="M0 0 C0.66 0 1.32 0 2 0 C1.43680102 6.40638835 0.29713964 12.2707437 -1.5 18.4375 C-1.72558594 19.23865234 -1.95117188 20.03980469 -2.18359375 20.86523438 C-3.83850599 26.67701199 -3.83850599 26.67701199 -5 29 C4.57 29 14.14 29 24 29 C24 29.66 24 30.32 24 31 C5.85 31 -12.3 31 -31 31 C-31 30.67 -31 30.34 -31 30 C-23.41 29.67 -15.82 29.34 -8 29 C-5.97947421 23.61193123 -4.63366302 19.97659518 -3.875 14.5625 C-3.09489051 9.09489051 -3.09489051 9.09489051 -2 8 C-1.835 6.845 -1.67 5.69 -1.5 4.5 C-1 1 -1 1 0 0 Z " fill="#C4957A" transform="translate(57,127)"/>
<path d="M0 0 C1.63129887 4.06285757 0.29968777 7.20102184 -0.9375 11.25 C-1.31777344 12.51328125 -1.69804687 13.7765625 -2.08984375 15.078125 C-2.39019531 16.04234375 -2.69054687 17.0065625 -3 18 C-3.66 18 -4.32 18 -5 18 C-4.95875 18.78375 -4.9175 19.5675 -4.875 20.375 C-5 23 -5 23 -7 25 C-10.01330006 25.18838354 -12.93405043 25.25164443 -15.94775391 25.22705078 C-16.87463516 25.22734283 -17.80151642 25.22763489 -18.75648499 25.22793579 C-21.82993834 25.22653889 -24.90315133 25.21096075 -27.9765625 25.1953125 C-30.10362618 25.19158365 -32.23069156 25.18873608 -34.35775757 25.18673706 C-39.96379312 25.17909052 -45.5697255 25.15943327 -51.17572021 25.1373291 C-56.89317428 25.11689264 -62.61064496 25.10774006 -68.328125 25.09765625 C-79.55212873 25.07618834 -90.7760558 25.0420401 -102 25 C-102 24.67 -102 24.34 -102 24 C-70.65 23.67 -39.3 23.34 -7 23 C-7 20.69 -7 18.38 -7 16 C-6.06553465 13.96855359 -5.06775224 11.96466413 -4 10 C-3.30092586 7.26427415 -3.30092586 7.26427415 -3 5 C-2.34 5 -1.68 5 -1 5 C-0.67 3.35 -0.34 1.7 0 0 Z " fill="#E6CA54" transform="translate(157,9)"/>
<path d="M0 0 C0.99 0 1.98 0 3 0 C2.58395667 6.34466074 1.28176916 11.54909237 -1.01953125 17.47265625 C-1.80349225 19.49346408 -2.48254083 21.55485378 -3.125 23.625 C-4 26 -4 26 -6 27 C-8.25120742 27.08573394 -10.50499303 27.10712188 -12.7578125 27.09765625 C-13.75238968 27.09553383 -13.75238968 27.09553383 -14.76705933 27.09336853 C-16.88641863 27.08776754 -19.00567259 27.075215 -21.125 27.0625 C-22.56119639 27.05748512 -23.99739444 27.05292219 -25.43359375 27.04882812 C-28.95576345 27.03779782 -32.47787145 27.02053259 -36 27 C-37.485 32.94 -37.485 32.94 -39 39 C-39.33 39 -39.66 39 -40 39 C-39.88512252 37.41590006 -39.75765492 35.83271037 -39.625 34.25 C-39.52058594 32.92742188 -39.52058594 32.92742188 -39.4140625 31.578125 C-39 29 -39 29 -37 25 C-21.655 24.505 -21.655 24.505 -6 24 C-5.67 22.68 -5.34 21.36 -5 20 C-4.50886719 19.07960938 -4.01773438 18.15921875 -3.51171875 17.2109375 C-1.81911838 13.61580182 -1.29497392 10.55901813 -0.8125 6.625 C-0.57466797 4.75714844 -0.57466797 4.75714844 -0.33203125 2.8515625 C-0.22246094 1.91054687 -0.11289063 0.96953125 0 0 Z " fill="#F2E380" transform="translate(189,8)"/>
<path d="M0 0 C0.66 0.33 1.32 0.66 2 1 C1.76925781 1.59683594 1.53851563 2.19367188 1.30078125 2.80859375 C-1.00763665 8.94916785 -2.97092687 15.15029079 -4.78515625 21.45043945 C-7.35314007 30.31824884 -10.12506439 39.12328304 -12.87768555 47.93505859 C-14.64717578 53.60733192 -16.41137653 59.27415927 -18 65 C-18.33 65 -18.66 65 -19 65 C-18.67 60.38 -18.34 55.76 -18 51 C-17.34 51 -16.68 51 -16 51 C-15.94392578 50.12988281 -15.94392578 50.12988281 -15.88671875 49.2421875 C-15.45402589 44.10077825 -14.44642394 40.59927701 -12 36 C-11.61210981 34.61315973 -11.25907496 33.21620021 -10.9375 31.8125 C-10 28 -10 28 -8 25 C-7.855625 23.9275 -7.71125 22.855 -7.5625 21.75 C-7.06479039 18.43193592 -6.23035409 15.99019826 -4.828125 12.97265625 C-3.47616616 9.75218826 -2.59210647 6.39771227 -1.6484375 3.0390625 C-1 1 -1 1 0 0 Z " fill="#E7CA72" transform="translate(78,66)"/>
<path d="M0 0 C0.33 0 0.66 0 1 0 C1.10846163 5.20615812 0.65734931 9.74120549 0 15 C8.58 15 17.16 15 26 15 C26.61875 12.875625 27.2375 10.75125 27.875 8.5625 C28.51798774 6.35490875 29.21376109 4.16072227 30 2 C30.66 1.67 31.32 1.34 32 1 C31.49803974 7.90195362 30.01768333 11.2102125 27 18 C11.16 18.495 11.16 18.495 -5 19 C-4.01809582 15.07238328 -2.98358556 11.16080748 -1.9375 7.25 C-1.75123047 6.55261719 -1.56496094 5.85523438 -1.37304688 5.13671875 C-0.91564761 3.42440354 -0.45786215 1.7121915 0 0 Z " fill="#B44710" transform="translate(22,139)"/>
<path d="M0 0 C0.96470453 3.4690385 0.94772909 6.15452847 0.5625 9.75 C0.46066406 10.73484375 0.35882813 11.7196875 0.25390625 12.734375 C0.17011719 13.48203125 0.08632813 14.2296875 0 15 C-0.99 15.33 -1.98 15.66 -3 16 C-2.7525 16.66 -2.505 17.32 -2.25 18 C-1.88233617 22.411966 -3.91332335 25.21450481 -6 29 C-7.57920561 32.50934581 -8.53139223 36.01230545 -9.4375 39.75 C-12.5 52 -12.5 52 -16 57 C-17 55 -17 55 -15.9609375 51.53515625 C-15.43752953 50.04242391 -14.90845339 48.55167199 -14.375 47.0625 C-12.1314513 40.59733182 -10.16745694 34.13676789 -8.5 27.5 C-6.14272464 18.16406384 -3.16078988 9.0913441 0 0 Z " fill="#D68D29" transform="translate(47,59)"/>
<path d="M0 0 C7.92 0 15.84 0 24 0 C23 8 23 8 22 11 C16.39 11 10.78 11 5 11 C5 10.67 5 10.34 5 10 C7.97 10 10.94 10 14 10 C14.144375 8.88625 14.28875 7.7725 14.4375 6.625 C15 3 15 3 16 1 C10.72 1 5.44 1 0 1 C0 0.67 0 0.34 0 0 Z " fill="#D5B2A4" transform="translate(91,146)"/>
<path d="M0 0 C2.22454923 3.33682385 2.43946099 4.13274325 2 8 C1.28489293 9.69025308 0.56411225 11.37910458 -0.21875 13.0390625 C-1.09063056 15.22748271 -1.47440542 17.30617369 -1.875 19.625 C-2.76016372 24.03581583 -4.54281777 26.0613951 -8 29 C-8.66 29.99 -9.32 30.98 -10 32 C-9.78902263 30.41766974 -9.57164378 28.83606037 -9.33203125 27.2578125 C-9.09286843 25.63150534 -8.88579814 24.00036293 -8.69921875 22.3671875 C-7.8520418 16.22301531 -6.46999936 12.44349213 -2.2421875 7.8515625 C-0.63737917 5.45948971 -0.85838528 3.82285348 -1 1 C-0.67 0.67 -0.34 0.34 0 0 Z " fill="#C69C9A" transform="translate(39,68)"/>
<path d="M0 0 C0.33 0 0.66 0 1 0 C0.85904936 1.6254308 0.71207913 3.25034051 0.5625 4.875 C0.48128906 5.77992187 0.40007812 6.68484375 0.31640625 7.6171875 C0 10 0 10 -1 12 C18.47 11.67 37.94 11.34 58 11 C58.33 8.03 58.66 5.06 59 2 C59.66 1.67 60.32 1.34 61 1 C61.99 3.475 61.99 3.475 63 6 C62.34 6 61.68 6 61 6 C60.566875 7.4540625 60.566875 7.4540625 60.125 8.9375 C59 12 59 12 57 13 C55.09018054 13.09119671 53.17712814 13.11752537 51.26513672 13.11352539 C50.06404266 13.11344986 48.86294861 13.11337433 47.62545776 13.11329651 C46.32335358 13.10813522 45.02124939 13.10297394 43.6796875 13.09765625 C42.33733167 13.09579138 40.99497516 13.0943678 39.65261841 13.09336853 C36.11804325 13.08954878 32.58350913 13.07972312 29.0489502 13.06866455 C25.44279536 13.05843878 21.8366339 13.05386841 18.23046875 13.04882812 C11.15362904 13.03810038 4.0768172 13.02103045 -3 13 C-3.0882491 7.92199957 -1.90828622 4.69120362 0 0 Z " fill="#F9C311" transform="translate(84,51)"/>
<path d="M0 0 C2.14576637 -0.02685938 4.29162645 -0.04633088 6.4375 -0.0625 C7.63246094 -0.07410156 8.82742187 -0.08570312 10.05859375 -0.09765625 C13 0 13 0 14 1 C13.69328006 5.29407912 13.066815 9.08863548 11.65234375 13.15234375 C9.96071057 18.09876482 8.37944179 23.07536921 6.8125 28.0625 C6.53986328 28.92810547 6.26722656 29.79371094 5.98632812 30.68554688 C5.32355085 32.7901554 4.66145111 34.89497438 4 37 C3.67 37 3.34 37 3 37 C2.3878472 28.12378435 4.00049657 18.49925515 9 11 C9.58837246 9.28616279 10.12719954 7.55480159 10.625 5.8125 C11.07875 4.224375 11.5325 2.63625 12 1 C8.04 1 4.08 1 0 1 C0 0.67 0 0.34 0 0 Z " fill="#D28340" transform="translate(145,114)"/>
<path d="M0 0 C1.17289776 3.51869327 0.73196652 4.45496012 -0.4375 7.875 C-1.643055 11.41057386 -2.16764716 14.25811539 -2 18 C-1.34 18.33 -0.68 18.66 0 19 C0.0880829 24.10880829 0.0880829 24.10880829 -1 27 C-3.74715391 29.47762183 -6.7436976 31.26330539 -10 33 C-8.22833934 25.35388556 -6.11745868 17.83204165 -3.875 10.3125 C-3.47643799 8.96623535 -3.47643799 8.96623535 -3.06982422 7.59277344 C-2.69108154 6.3344873 -2.69108154 6.3344873 -2.3046875 5.05078125 C-2.07765137 4.29450439 -1.85061523 3.53822754 -1.61669922 2.7590332 C-1 1 -1 1 0 0 Z " fill="#D2B3B1" transform="translate(32,82)"/>
<path d="M0 0 C0.33 0 0.66 0 1 0 C1.02698189 1.62490954 1.04638757 3.24994633 1.0625 4.875 C1.07410156 5.77992188 1.08570313 6.68484375 1.09765625 7.6171875 C1 10 1 10 0 12 C0.66 12 1.32 12 2 12 C2 15.63 2 19.26 2 23 C-0.64 23 -3.28 23 -6 23 C-5.38334864 17.60607261 -4.12077204 12.71604717 -2.4375 7.5625 C-2.20353516 6.83095703 -1.96957031 6.09941406 -1.72851562 5.34570312 C-1.15732778 3.56219821 -0.57936877 1.78086417 0 0 Z " fill="#CDA8A6" transform="translate(15,135)"/>
<path d="M0 0 C0.66 0 1.32 0 2 0 C1.34 2.31 0.68 4.62 0 7 C-0.66 7 -1.32 7 -2 7 C-2.12375 8.258125 -2.2475 9.51625 -2.375 10.8125 C-2.69868059 14.10325263 -3.06604999 15.09907498 -5 18 C-5.39387788 20.32387947 -5.73486085 22.65793749 -6 25 C-7.98 25.33 -9.96 25.66 -12 26 C-11.50582751 18.58741259 -11.50582751 18.58741259 -9.0625 15.75 C-8.381875 15.1725 -7.70125 14.595 -7 14 C-5.76487921 11.86690808 -5.76487921 11.86690808 -5 10 C-4.67 10 -4.34 10 -4 10 C-3.79503906 9.36191406 -3.59007812 8.72382813 -3.37890625 8.06640625 C-3.10949219 7.24011719 -2.84007812 6.41382813 -2.5625 5.5625 C-2.16224609 4.32693359 -2.16224609 4.32693359 -1.75390625 3.06640625 C-1 1 -1 1 0 0 Z " fill="#CAA7A3" transform="translate(156,7)"/>
<path d="M0 0 C0.7579917 2.82640972 1.27676554 5.59472961 1.625 8.5 C1.72039063 9.2528125 1.81578125 10.005625 1.9140625 10.78125 C2.00310019 13.08004123 1.57100151 14.78793115 1 17 C1.27050453 19.00946222 1.59367909 21.01354224 2 23 C-0.31 23 -2.62 23 -5 23 C-5.84381994 14.73056456 -2.78872975 7.6490873 0 0 Z " fill="#C6A29B" transform="translate(5,168)"/>
<path d="M0 0 C0.33 0 0.66 0 1 0 C1.33 1.98 1.66 3.96 2 6 C1.01 6.66 0.02 7.32 -1 8 C-1.04443347 9.99950636 -1.03920815 12.00038436 -1 14 C-1.66 15.65 -2.32 17.3 -3 19 C5.58 18.67 14.16 18.34 23 18 C23.66 15.69 24.32 13.38 25 11 C25.66 11 26.32 11 27 11 C26.125 17.75 26.125 17.75 25 20 C15.1 20 5.2 20 -5 20 C-4.54625 17.4425 -4.0925 14.885 -3.625 12.25 C-3.48658691 11.45110352 -3.34817383 10.65220703 -3.20556641 9.82910156 C-2.55432947 6.26301794 -1.88834057 3.11986703 0 0 Z " fill="#B95419" transform="translate(90,125)"/>
<path d="M0 0 C0.33 0 0.66 0 1 0 C0.97679688 1.00160156 0.95359375 2.00320312 0.9296875 3.03515625 C0.91091211 4.37759664 0.89271382 5.72004518 0.875 7.0625 C0.84019531 9.02896484 0.84019531 9.02896484 0.8046875 11.03515625 C1.00582478 15.11824299 1.72834538 18.14999053 3 22 C0.66705225 22.04241723 -1.66702567 22.04092937 -4 22 C-4.33 21.67 -4.66 21.34 -5 21 C-4.50256469 16.00675696 -3.35587937 11.36668819 -1.9375 6.5625 C-1.57527344 5.32628906 -1.21304688 4.09007812 -0.83984375 2.81640625 C-0.56269531 1.88699219 -0.28554687 0.95757812 0 0 Z " fill="#D1B6B1" transform="translate(81,125)"/>
<path d="M0 0 C10.23 0 20.46 0 31 0 C31 0.66 31 1.32 31 2 C15.655 2.495 15.655 2.495 0 3 C0 3.99 0 4.98 0 6 C-0.66 6 -1.32 6 -2 6 C-2.33 6.99 -2.66 7.98 -3 9 C-2.41321669 5.47930015 -1.64350079 3.28700157 0 0 Z " fill="#E4D068" transform="translate(161,0)"/>
<path d="M0 0 C0.99 0 1.98 0 3 0 C2.2961657 4.99801433 1.01464565 9.68209403 -0.4375 14.5 C-0.76331055 15.60021484 -0.76331055 15.60021484 -1.09570312 16.72265625 C-2.32260467 20.84180317 -3.61557183 24.93042509 -5 29 C-5.99 29 -6.98 29 -8 29 C-6.22489924 22.16855162 -4.21095518 15.48306258 -1.8671875 8.82421875 C-0.96751921 5.89421798 -0.43866884 3.03039596 0 0 Z " fill="#EDB329" transform="translate(86,35)"/>
<path d="M0 0 C1.25127906 3.54667178 0.72285053 5.72253438 -0.4375 9.25 C-0.86869141 10.58804688 -0.86869141 10.58804688 -1.30859375 11.953125 C-1.53675781 12.62859375 -1.76492187 13.3040625 -2 14 C-2.33 13.01 -2.66 12.02 -3 11 C-18.345 11.495 -18.345 11.495 -34 12 C-33.67 9.36 -33.34 6.72 -33 4 C-31.875 7.75 -31.875 7.75 -33 10 C-23.1 10 -13.2 10 -3 10 C-2.34 7.03 -1.68 4.06 -1 1 C-0.67 0.67 -0.34 0.34 0 0 Z " fill="#B86D42" transform="translate(118,135)"/>
<path d="M0 0 C0.33 0 0.66 0 1 0 C0.80966635 7.50952752 -1.15274197 13.81511214 -3.84375 20.80078125 C-4.83920987 23.55511109 -5.52424632 26.11844646 -6 29 C-6.33 29 -6.66 29 -7 29 C-6.67 24.38 -6.34 19.76 -6 15 C-5.34 15 -4.68 15 -4 15 C-3.94392578 14.12988281 -3.94392578 14.12988281 -3.88671875 13.2421875 C-3.46096333 8.18321136 -2.62861009 4.45720842 0 0 Z " fill="#E9AA5D" transform="translate(66,102)"/>
<path d="M0 0 C1.134375 0.020625 2.26875 0.04125 3.4375 0.0625 C2.83035156 0.2790625 2.22320312 0.495625 1.59765625 0.71875 C-1.34329742 2.548204 -1.87465314 4.36029155 -3.125 7.5625 C-3.54265625 8.62984375 -3.9603125 9.6971875 -4.390625 10.796875 C-5.96068548 15.1721102 -7.34208646 19.5777283 -8.5625 24.0625 C-9.2225 24.0625 -9.8825 24.0625 -10.5625 24.0625 C-6.45382075 0.11322493 -6.45382075 0.11322493 0 0 Z " fill="#D0B7B8" transform="translate(50.5625,32.9375)"/>
<path d="M0 0 C0.66 0 1.32 0 2 0 C1.01 3.96 0.02 7.92 -1 12 C-2 8 -2 8 -1 6 C-13.87 6 -26.74 6 -40 6 C-40 5.67 -40 5.34 -40 5 C-37.69 5 -35.38 5 -33 5 C-32.67 4.01 -32.34 3.02 -32 2 C-32 2.99 -32 3.98 -32 5 C-21.77 5 -11.54 5 -1 5 C-0.67 3.35 -0.34 1.7 0 0 Z " fill="#A96F47" transform="translate(146,152)"/>
<path d="M0 0 C-1.08896667 5.75762166 -2.29336293 11.39247819 -4 17 C-6.45536509 14.54463491 -6.61976279 13.42213488 -7 10 C-6.57291667 3.80729167 -6.57291667 3.80729167 -4.625 1.0625 C-3 0 -3 0 0 0 Z " fill="#CF968B" transform="translate(88,129)"/>
<path d="M0 0 C1.63129887 4.06285757 0.29968777 7.20102184 -0.9375 11.25 C-1.31777344 12.51328125 -1.69804687 13.7765625 -2.08984375 15.078125 C-2.39019531 16.04234375 -2.69054687 17.0065625 -3 18 C-3.66 18 -4.32 18 -5 18 C-4.979375 18.804375 -4.95875 19.60875 -4.9375 20.4375 C-5 23 -5 23 -6 24 C-7.99958364 24.04080783 -10.00045254 24.04254356 -12 24 C-12 23.67 -12 23.34 -12 23 C-10.35 23 -8.7 23 -7 23 C-7.0928125 21.453125 -7.0928125 21.453125 -7.1875 19.875 C-6.98548629 15.70004992 -5.96802541 13.62116675 -4 10 C-3.30092586 7.26427415 -3.30092586 7.26427415 -3 5 C-2.34 5 -1.68 5 -1 5 C-0.67 3.35 -0.34 1.7 0 0 Z " fill="#DBA465" transform="translate(157,9)"/>
<path d="M0 0 C1 2 1 2 -0.109375 5.7109375 C-0.65028988 7.2677087 -1.19755206 8.82228407 -1.75 10.375 C-4.22286222 17.52470402 -6.34834264 24.61100656 -8 32 C-8.33 32 -8.66 32 -9 32 C-8.45981966 22.36988848 -7.29484415 7.29484415 0 0 Z " fill="#D09A75" transform="translate(44,67)"/>
<path d="M0 0 C10.23 0 20.46 0 31 0 C30.67 0.66 30.34 1.32 30 2 C20.43 1.67 10.86 1.34 1 1 C1 2.65 1 4.3 1 6 C-1 8.3125 -1 8.3125 -3 10 C-2.36738317 6.30973516 -1.42909641 3.57274103 0 0 Z " fill="#E57A18" transform="translate(126,115)"/>
<path d="M0 0 C0.66 0 1.32 0 2 0 C1.4873357 5.82818365 0.79506837 11.41534286 -1 17 C-1.99 17.33 -2.98 17.66 -4 18 C-3.85950482 16.52031676 -3.71245174 15.04125484 -3.5625 13.5625 C-3.48128906 12.73878906 -3.40007813 11.91507813 -3.31640625 11.06640625 C-3 9 -3 9 -2 8 C-1.835 6.845 -1.67 5.69 -1.5 4.5 C-1 1 -1 1 0 0 Z " fill="#CC7C48" transform="translate(57,127)"/>
<path d="M0 0 C0.33 1.32 0.66 2.64 1 4 C0.13197754 3.98952637 -0.73604492 3.97905273 -1.63037109 3.96826172 C-4.84699528 3.93420284 -8.06352767 3.90911233 -11.28027344 3.89013672 C-12.67320781 3.88007123 -14.06612102 3.86641766 -15.45898438 3.84912109 C-17.4595436 3.8248978 -19.46025615 3.81459186 -21.4609375 3.8046875 C-22.66540527 3.79421387 -23.86987305 3.78374023 -25.11083984 3.77294922 C-28.12841495 3.69539186 -28.12841495 3.69539186 -30 6 C-29.67 4.68 -29.34 3.36 -29 2 C-27.78884521 1.96241577 -27.78884521 1.96241577 -26.55322266 1.92407227 C-22.91031083 1.80834513 -19.26767274 1.68551365 -15.625 1.5625 C-13.71847656 1.50352539 -13.71847656 1.50352539 -11.7734375 1.44335938 C-9.95585938 1.38051758 -9.95585938 1.38051758 -8.1015625 1.31640625 C-6.42054443 1.26141968 -6.42054443 1.26141968 -4.70556641 1.20532227 C-2.03287229 1.17403987 -2.03287229 1.17403987 0 0 Z " fill="#E66204" transform="translate(58,123)"/>
<path d="M0 0 C0.33 0.66 0.66 1.32 1 2 C10.9 2 20.8 2 31 2 C31 2.33 31 2.66 31 3 C15.16 3.495 15.16 3.495 -1 4 C-0.67 2.68 -0.34 1.36 0 0 Z " fill="#B05A2F" transform="translate(18,154)"/>
<path d="M0 0 C0.33 0 0.66 0 1 0 C0.58997722 12.66970387 0.58997722 12.66970387 -4 18 C-5.52731594 14.94536813 -4.49228742 12.33661472 -4 9 C-3.96296763 6.66696056 -3.95239087 4.33284758 -4 2 C-3.34 1.67 -2.68 1.34 -2 1 C-2 2.98 -2 4.96 -2 7 C-1.34 4.69 -0.68 2.38 0 0 Z " fill="#C85E1A" transform="translate(122,126)"/>
<path d="M0 0 C0.66 0.33 1.32 0.66 2 1 C1.34 4.63 0.68 8.26 0 12 C-0.99 12.33 -1.98 12.66 -3 13 C-4.47692308 5.73846154 -4.47692308 5.73846154 -2.0625 2 C-1.381875 1.34 -0.70125 0.68 0 0 Z " fill="#CF978C" transform="translate(34,92)"/>
<path d="M0 0 C1.224161 4.896644 2.35418095 9.48576893 -0.1171875 14.07421875 C-1.33661937 15.77246709 -2.66156111 17.39387333 -4 19 C-4.66 18.67 -5.32 18.34 -6 18 C-4.02 12.06 -2.04 6.12 0 0 Z " fill="#D4BDBD" transform="translate(38,62)"/>
<path d="M0 0 C1.3646993 4.9305265 2.1592846 9.89220983 -0.375 14.5 C-2 16 -2 16 -4 16 C-4.33 16.66 -4.66 17.32 -5 18 C-4.38388165 13.68068613 -3.35761422 9.74791225 -1.9375 5.625 C-1.57527344 4.56539062 -1.21304687 3.50578125 -0.83984375 2.4140625 C-0.56269531 1.61742187 -0.28554687 0.82078125 0 0 Z " fill="#D9BBBF" transform="translate(5,168)"/>
<path d="M0 0 C2.31 0 4.62 0 7 0 C6.71926927 2.14729141 6.42511501 4.29283193 6.125 6.4375 C5.96257812 7.63246094 5.80015625 8.82742187 5.6328125 10.05859375 C5.31957031 11.51458984 5.31957031 11.51458984 5 13 C4.01 13.495 4.01 13.495 3 14 C1.88341499 9.31034294 2.19380477 6.46236469 4 2 C2.35 2 0.7 2 -1 2 C-0.67 1.34 -0.34 0.68 0 0 Z " fill="#A04926" transform="translate(138,158)"/>
<path d="M0 0 C0.98291016 0.05478516 1.96582031 0.10957031 2.97851562 0.16601562 C4.00267578 0.23884766 5.02683594 0.31167969 6.08203125 0.38671875 C7.63567383 0.47856445 7.63567383 0.47856445 9.22070312 0.57226562 C11.77985082 0.72557862 14.3372017 0.89342945 16.89453125 1.07421875 C16.89453125 1.40421875 16.89453125 1.73421875 16.89453125 2.07421875 C6.00453125 2.56921875 6.00453125 2.56921875 -5.10546875 3.07421875 C-5.76546875 5.05421875 -6.42546875 7.03421875 -7.10546875 9.07421875 C-7.43546875 9.07421875 -7.76546875 9.07421875 -8.10546875 9.07421875 C-8.4708572 3.59339198 -8.4708572 3.59339198 -6.9128418 1.37963867 C-4.46101451 -0.39125428 -2.99482965 -0.19042269 0 0 Z " fill="#DFBF41" transform="translate(83.10546875,63.92578125)"/>
<path d="M0 0 C0.66 0 1.32 0 2 0 C1.22095672 11.52164009 1.22095672 11.52164009 -1 17 C-1.66 16.67 -2.32 16.34 -3 16 C-3.25 9.375 -3.25 9.375 -1 6 C-0.60986284 4.0103005 -0.26797351 2.00980131 0 0 Z " fill="#EECE47" transform="translate(148,39)"/>
<path d="M0 0 C1.31004197 3.9301259 0.29486835 6.76479193 -0.75 10.625 C-0.92015625 11.31851563 -1.0903125 12.01203125 -1.265625 12.7265625 C-1.796875 14.7265625 -1.796875 14.7265625 -3 18 C-3.99 18.33 -4.98 18.66 -6 19 C-5.38221953 16.39392608 -4.75612789 13.79034303 -4.125 11.1875 C-3.95097656 10.44951172 -3.77695312 9.71152344 -3.59765625 8.95117188 C-2.75507489 5.50282963 -1.98714425 2.98071638 0 0 Z " fill="#D4907D" transform="translate(22,136)"/>
<path d="M0 0 C2.27057377 -0.05398987 4.54151288 -0.09278742 6.8125 -0.125 C8.07707031 -0.14820312 9.34164062 -0.17140625 10.64453125 -0.1953125 C14 0 14 0 17 2 C16.67 2.66 16.34 3.32 16 4 C15.67 3.67 15.34 3.34 15 3 C12.13732433 2.92674832 9.299281 2.90761795 6.4375 2.9375 C5.63119141 2.94201172 4.82488281 2.94652344 3.99414062 2.95117188 C1.99606244 2.96299482 -0.00197783 2.98093086 -2 3 C-1.34 2.67 -0.68 2.34 0 2 C0 1.34 0 0.68 0 0 Z " fill="#EFCF9E" transform="translate(143,112)"/>
<path d="M0 0 C1.56850016 3.13700032 0.1471887 5.96322809 -0.75 9.1875 C-0.92015625 9.83525391 -1.0903125 10.48300781 -1.265625 11.15039062 C-2.48302291 15.63059396 -4.09018044 19.76876184 -6 24 C-6.33 24 -6.66 24 -7 24 C-6.505 19.545 -6.505 19.545 -6 15 C-5.34 15 -4.68 15 -4 15 C-3.94392578 14.12988281 -3.94392578 14.12988281 -3.88671875 13.2421875 C-3.46096333 8.18321136 -2.62861009 4.45720842 0 0 Z " fill="#F8C117" transform="translate(84,41)"/>
<path d="M0 0 C0.33 0 0.66 0 1 0 C1.08074502 3.87576083 0.97064394 7.47935606 0.375 11.3125 C0.25125 12.529375 0.1275 13.74625 0 15 C0.66 15.66 1.32 16.32 2 17 C0.35 17 -1.3 17 -3 17 C-2.22095672 5.47835991 -2.22095672 5.47835991 0 0 Z " fill="#B44611" transform="translate(22,139)"/>
<path d="M0 0 C3.63 0 7.26 0 11 0 C11 0.33 11 0.66 11 1 C7.7 1.33 4.4 1.66 1 2 C0.67 4.31 0.34 6.62 0 9 C-0.66 9 -1.32 9 -2 9 C-2.33 9.99 -2.66 10.98 -3 12 C-2.4721307 7.51311093 -1.70509 4.26272499 0 0 Z " fill="#EDBF2F" transform="translate(55,34)"/>
<path d="M0 0 C0.99 0 1.98 0 3 0 C1.44191344 10.55808656 1.44191344 10.55808656 -3 15 C-2.35812082 9.86496656 -1.31727753 5.0056546 0 0 Z " fill="#CAA51E" transform="translate(70,81)"/>
<path d="M0 0 C1.09651823 3.41139003 0.94215473 6.20655581 0.5625 9.75 C0.46066406 10.73484375 0.35882813 11.7196875 0.25390625 12.734375 C0.12822266 13.85585937 0.12822266 13.85585937 0 15 C-1.32 15.33 -2.64 15.66 -4 16 C-2.98408579 10.53135543 -1.92908943 5.23609987 0 0 Z " fill="#DEAD2A" transform="translate(47,59)"/>
<path d="M0 0 C0.33 0 0.66 0 1 0 C1.11138159 5.45769811 0.91657981 10.61509359 0 16 C-1.32 15.34 -2.64 14.68 -4 14 C-2.68 9.38 -1.36 4.76 0 0 Z " fill="#D6BCBC" transform="translate(21,115)"/>
<path d="M0 0 C0.33 0 0.66 0 1 0 C0.88487847 1.72985242 0.75744323 3.45888751 0.625 5.1875 C0.55539063 6.15042969 0.48578125 7.11335938 0.4140625 8.10546875 C-0.00215853 11.01508938 -0.79874096 13.32890774 -2 16 C-2.66 16 -3.32 16 -4 16 C-2.98408579 10.53135543 -1.92908943 5.23609987 0 0 Z " fill="#E0C8C7" transform="translate(44,41)"/>
<path d="M0 0 C0.99 0 1.98 0 3 0 C2.85892253 1.45880109 2.71197585 2.91703551 2.5625 4.375 C2.48128906 5.18710938 2.40007812 5.99921875 2.31640625 6.8359375 C2 9 2 9 1 11 C0.34 11 -0.32 11 -1 11 C-0.67 7.37 -0.34 3.74 0 0 Z " fill="#EFD156" transform="translate(189,8)"/>
<path d="M0 0 C1.49828872 3.88235819 0.43110582 6.43449288 -0.9375 10.25 C-1.31777344 11.32765625 -1.69804687 12.4053125 -2.08984375 13.515625 C-2.39019531 14.33546875 -2.69054687 15.1553125 -3 16 C-3.33 16 -3.66 16 -4 16 C-4.46450943 9.49686791 -3.32575612 5.5825192 0 0 Z " fill="#A1674A" transform="translate(140,173)"/>
<path d="M0 0 C1.25127906 3.54667178 0.72285053 5.72253438 -0.4375 9.25 C-0.72496094 10.14203125 -1.01242188 11.0340625 -1.30859375 11.953125 C-1.53675781 12.62859375 -1.76492187 13.3040625 -2 14 C-2.33 13.01 -2.66 12.02 -3 11 C-5.31 11 -7.62 11 -10 11 C-10 10.67 -10 10.34 -10 10 C-7.69 10 -5.38 10 -3 10 C-2.86722656 9.36191406 -2.73445313 8.72382813 -2.59765625 8.06640625 C-2.42105469 7.24011719 -2.24445313 6.41382813 -2.0625 5.5625 C-1.88847656 4.73878906 -1.71445313 3.91507813 -1.53515625 3.06640625 C-1 1 -1 1 0 0 Z " fill="#D67446" transform="translate(118,135)"/>
<path d="M0 0 C0.97582031 0.00902344 1.95164062 0.01804687 2.95703125 0.02734375 C3.69308594 0.03894531 4.42914063 0.05054687 5.1875 0.0625 C2.62890949 2.62109051 1.3040285 2.43262943 -2.25 2.6875 C-3.70212891 2.79964844 -3.70212891 2.79964844 -5.18359375 2.9140625 C-7.05756326 3.01987356 -8.93554563 3.0625 -10.8125 3.0625 C-10.8125 2.4025 -10.8125 1.7425 -10.8125 1.0625 C-7.13862505 0.20951624 -3.7677607 -0.04539471 0 0 Z " fill="#D49505" transform="translate(55.8125,92.9375)"/>
<path d="M0 0 C0.99 1.32 1.98 2.64 3 4 C2.01 4.495 2.01 4.495 1 5 C0.27306096 6.97888961 -0.39816251 8.97954558 -1 11 C-2.65 11.33 -4.3 11.66 -6 12 C-5.03126953 11.64615234 -5.03126953 11.64615234 -4.04296875 11.28515625 C-1.79368828 10.19270139 -1.79368828 10.19270139 -1.42578125 7.87109375 C-1.38839844 7.06800781 -1.35101563 6.26492187 -1.3125 5.4375 C-1.06779661 1.06779661 -1.06779661 1.06779661 0 0 Z " fill="#F2CA1E" transform="translate(144,52)"/>
<path d="M0 0 C1.32 0 2.64 0 4 0 C3.25 7.625 3.25 7.625 1 11 C-0.17571451 7.32589215 -0.07366746 3.83070817 0 0 Z " fill="#D29283" transform="translate(111,146)"/>
<path d="M0 0 C0.33 0 0.66 0 1 0 C1.55353075 10.55808656 1.55353075 10.55808656 -2 15 C-3.31534494 11.34142468 -2.65468309 8.91973519 -1.5625 5.25 C-1.27503906 4.26515625 -0.98757812 3.2803125 -0.69140625 2.265625 C-0.46324219 1.51796875 -0.23507813 0.7703125 0 0 Z " fill="#DCC4C3" transform="translate(150,8)"/>
<path d="M0 0 C-0.28127421 1.48117801 -0.57533732 2.95993249 -0.875 4.4375 C-1.03742187 5.26121094 -1.19984375 6.08492187 -1.3671875 6.93359375 C-1.68042969 7.95646484 -1.68042969 7.95646484 -2 9 C-2.99 9.495 -2.99 9.495 -4 10 C-5.3442623 4.62295082 -5.3442623 4.62295082 -3.6875 1.625 C-2 0 -2 0 0 0 Z " fill="#CD9389" transform="translate(10,178)"/>
<path d="M0 0 C0.66 0 1.32 0 2 0 C1.34 2.31 0.68 4.62 0 7 C-0.66 7 -1.32 7 -2 7 C-2.33 9.64 -2.66 12.28 -3 15 C-3.95721871 11.96541304 -4.00893515 10.00458518 -3.1875 6.9375 C-3.01605469 6.26589844 -2.84460938 5.59429687 -2.66796875 4.90234375 C-2 3 -2 3 0 0 Z " fill="#CD9990" transform="translate(156,7)"/>
<path d="M0 0 C0.66 0 1.32 0 2 0 C3.05236973 3.34844914 3.20005388 4.59079889 1.625 7.8125 C1.08875 8.534375 0.5525 9.25625 0 10 C-0.33 10 -0.66 10 -1 10 C-1.125 2.25 -1.125 2.25 0 0 Z " fill="#D2A522" transform="translate(42,75)"/>
<path d="M0 0 C1.07310858 3.27185553 0.89263102 5.42947592 0.0625 8.75 C-0.22947266 9.94882812 -0.22947266 9.94882812 -0.52734375 11.171875 C-0.68332031 11.77515625 -0.83929688 12.3784375 -1 13 C-1.66 13 -2.32 13 -3 13 C-2.52060632 8.28596212 -2.03165952 4.33420699 0 0 Z " fill="#EFBB32" transform="translate(51,46)"/>
<path d="M0 0 C0.66 0 1.32 0 2 0 C1.48594831 4.96916636 0.76615118 9.29026351 -1 14 C-1.33 14 -1.66 14 -2 14 C-2.21192221 8.80790596 -1.5912689 4.873261 0 0 Z " fill="#D29E75" transform="translate(47,51)"/>
<path d="M0 0 C1.98 0.66 3.96 1.32 6 2 C3.94766315 4.2477975 2.99332739 5.0022242 0 6 C0 4.02 0 2.04 0 0 Z " fill="#D88C08" transform="translate(38,93)"/>
<path d="M0 0 C0.33 0 0.66 0 1 0 C1.390625 5.95703125 1.390625 5.95703125 1 8 C-0.32 8.99 -1.64 9.98 -3 11 C-2.01 7.37 -1.02 3.74 0 0 Z " fill="#9B4827" transform="translate(12,172)"/>
<path d="M0 0 C0.66 0 1.32 0 2 0 C1.01 3.96 0.02 7.92 -1 12 C-2.05413042 7.78347832 -1.79607654 5.21920566 -1 1 C-0.67 0.67 -0.34 0.34 0 0 Z " fill="#C1805D" transform="translate(146,152)"/>
<path d="M0 0 C0.33 0 0.66 0 1 0 C1.39253254 4.44870215 0.15305957 7.14243493 -2 11 C-2.33 11 -2.66 11 -3 11 C-3.32434322 6.35108046 -2.776422 3.77593392 0 0 Z " fill="#C24A0B" transform="translate(120,139)"/>
<path d="M0 0 C0.33 0 0.66 0 1 0 C1.33 1.98 1.66 3.96 2 6 C-0.475 7.485 -0.475 7.485 -3 9 C-2.01 6.03 -1.02 3.06 0 0 Z " fill="#CD632C" transform="translate(90,125)"/>
<path d="M0 0 C1 2 1 2 0.44140625 3.9453125 C0.15136719 4.66460937 -0.13867188 5.38390625 -0.4375 6.125 C-0.72496094 6.84945312 -1.01242188 7.57390625 -1.30859375 8.3203125 C-1.53675781 8.87460938 -1.76492187 9.42890625 -2 10 C-2.33 10 -2.66 10 -3 10 C-2.88637738 8.5199159 -2.75877092 7.04089926 -2.625 5.5625 C-2.55539063 4.73878906 -2.48578125 3.91507812 -2.4140625 3.06640625 C-2.27742188 2.38449219 -2.14078125 1.70257813 -2 1 C-1.34 0.67 -0.68 0.34 0 0 Z " fill="#DC8F6A" transform="translate(92,116)"/>
<path d="M0 0 C1.5 1.375 1.5 1.375 3 3 C3 3.66 3 4.32 3 5 C3.99 5.66 4.98 6.32 6 7 C3.69 7 1.38 7 -1 7 C-0.67 4.69 -0.34 2.38 0 0 Z " fill="#DEC3C3" transform="translate(10,151)"/>
<path d="M0 0 C0.66 0 1.32 0 2 0 C1.67 2.31 1.34 4.62 1 7 C0.01 7 -0.98 7 -2 7 C-1.34 4.69 -0.68 2.38 0 0 Z " fill="#C55313" transform="translate(115,136)"/>
<path d="M0 0 C0.33 0 0.66 0 1 0 C1 2.97 1 5.94 1 9 C0.01 9 -0.98 9 -2 9 C-1.34 6.03 -0.68 3.06 0 0 Z " fill="#E67A2C" transform="translate(29,116)"/>
<path d="M0 0 C1 3 1 3 -0.4375 6.1875 C-1.2109375 7.5796875 -1.2109375 7.5796875 -2 9 C-2.66 9 -3.32 9 -4 9 C-4 8.01 -4 7.02 -4 6 C-3.34 6 -2.68 6 -2 6 C-1.7834375 5.071875 -1.7834375 5.071875 -1.5625 4.125 C-1 2 -1 2 0 0 Z " fill="#F2DC72" transform="translate(145,57)"/>
<path d="M0 0 C0.99 0 1.98 0 3 0 C2.50168276 3.68754757 1.89932357 5.60490662 -1 8 C-0.67 5.36 -0.34 2.72 0 0 Z " fill="#CD9A8A" transform="translate(42,63)"/>
<path d="M0 0 C0.66 0 1.32 0 2 0 C1.38461538 5.53846154 1.38461538 5.53846154 -0.5625 7.875 C-1.036875 8.24625 -1.51125 8.6175 -2 9 C-1.125 1.125 -1.125 1.125 0 0 Z " fill="#F0C830" transform="translate(186,19)"/>
<path d="M0 0 C0.33 0 0.66 0 1 0 C1.33 1.98 1.66 3.96 2 6 C1.01 6.33 0.02 6.66 -1 7 C-1.33 7.66 -1.66 8.32 -2 9 C-1.125 2.25 -1.125 2.25 0 0 Z " fill="#D4C1C3" transform="translate(8,159)"/>
<path d="M0 0 C0.33 0 0.66 0 1 0 C1.36923077 6.52307692 1.36923077 6.52307692 -0.5 8.9375 C-0.995 9.288125 -1.49 9.63875 -2 10 C-1.54177532 6.53058454 -1.10868317 3.32604951 0 0 Z " fill="#BE5D2E" transform="translate(22,139)"/>
<path d="M0 0 C0.33 0 0.66 0 1 0 C1.33 2.97 1.66 5.94 2 9 C1.01 9.66 0.02 10.32 -1 11 C-0.67 7.37 -0.34 3.74 0 0 Z " fill="#CBA8AE" transform="translate(39,58)"/>
</svg>
